<svg width="52" height="52" viewBox="0 0 52 52" fill="none" xmlns="http://www.w3.org/2000/svg">
<rect x="0.5" y="0.5" width="51" height="51" rx="25.5" stroke="#BBEA70"/>
<rect x="3.16602" y="3.16699" width="45.6667" height="45.6667" rx="22.8333" fill="#BBEA70" stroke="#BBEA70" stroke-width="2"/>
<rect x="9.75" y="9.75" width="32.5" height="32.5" rx="8" fill="white"/>
<path d="M31.6173 16.1169V18.5258H20.3828V16.1169C20.3828 15.662 20.7508 15.2939 21.2058 15.2939H30.7942C31.2493 15.2939 31.6173 15.662 31.6173 16.1169Z" fill="#E5E8EF"/>
<path d="M20.3828 16.8965H31.6173V18.5258H20.3828V16.8965Z" fill="#CDD4DF"/>
<path d="M33.7787 18.6962V35.7019H18.2217V18.6962C18.2217 18.0705 18.7268 17.5654 19.3491 17.5654H32.6512C33.2734 17.5654 33.7787 18.0705 33.7787 18.6962Z" fill="#E5E8EF"/>
<path d="M33.7787 35.7033H18.2217L32.6503 17.5674C33.2735 17.5674 33.7787 18.0725 33.7787 18.6957V35.7033Z" fill="#CDD4DF"/>
<path d="M28.1577 31.4629V35.7251H23.8418V31.4629C23.8418 31.0647 24.1664 30.7402 24.5645 30.7402H27.435C27.8331 30.7402 28.1577 31.0647 28.1577 31.4629Z" fill="#435E88"/>
<path d="M23.8428 35.7241L27.4352 30.7402C27.8341 30.7402 28.1576 31.0637 28.1576 31.4627V35.7241H23.8428Z" fill="#33527D"/>
<path d="M32.1059 27.9529V30.3216C32.1059 30.6026 31.8784 30.8301 31.5974 30.8301H29.2253C28.9443 30.8301 28.7168 30.6026 28.7168 30.3216V27.9529C28.7168 27.6719 28.9443 27.4443 29.2253 27.4443H31.5974C31.8784 27.4443 32.1059 27.6719 32.1059 27.9529Z" fill="#5CBEFF"/>
<path d="M32.106 27.9526V30.3213C32.106 30.6022 31.8784 30.8298 31.5974 30.8298H29.2254C29.0514 30.8298 28.9009 30.7427 28.8105 30.6124L31.9287 27.5713C32.039 27.6615 32.106 27.7987 32.106 27.9526Z" fill="#079CFF"/>
<path d="M32.1059 23.8513V26.22C32.1059 26.501 31.8784 26.7284 31.5974 26.7284H29.2253C28.9443 26.7284 28.7168 26.501 28.7168 26.22V23.8513C28.7168 23.5702 28.9443 23.3428 29.2253 23.3428H31.5974C31.8784 23.3428 32.1059 23.5702 32.1059 23.8513Z" fill="#5CBEFF"/>
<path d="M32.106 23.851V26.2197C32.106 26.5007 31.8784 26.7282 31.5974 26.7282H29.2254C29.0514 26.7282 28.9009 26.6412 28.8105 26.5108L31.9287 23.4697C32.039 23.5599 32.106 23.6971 32.106 23.851Z" fill="#079CFF"/>
<path d="M32.1059 19.7497V22.1184C32.1059 22.3994 31.8784 22.627 31.5974 22.627H29.2253C28.9443 22.627 28.7168 22.3994 28.7168 22.1184V19.7497C28.7168 19.4688 28.9443 19.2412 29.2253 19.2412H31.5974C31.8784 19.2412 32.1059 19.4688 32.1059 19.7497Z" fill="#5CBEFF"/>
<path d="M32.106 19.7504V22.1191C32.106 22.4001 31.8784 22.6277 31.5974 22.6277H29.2254C29.0514 22.6277 28.9009 22.5406 28.8105 22.4102L31.9287 19.3691C32.039 19.4593 32.106 19.5965 32.106 19.7504Z" fill="#079CFF"/>
<path d="M27.6967 23.8523V26.221C27.6967 26.502 27.4692 26.7294 27.1881 26.7294H24.8162C24.5351 26.7294 24.3076 26.502 24.3076 26.221V23.8523C24.3076 23.5711 24.5351 23.3438 24.8162 23.3438H27.1881C27.4692 23.3438 27.6967 23.5711 27.6967 23.8523Z" fill="#5CBEFF"/>
<path d="M27.6949 23.852V26.2207C27.6949 26.5017 27.4673 26.7292 27.1863 26.7292H24.8143C24.6403 26.7292 24.4898 26.6422 24.3994 26.5118L27.5175 23.4707C27.6279 23.5609 27.6949 23.6981 27.6949 23.852Z" fill="#079CFF"/>
<path d="M27.6948 19.7507V22.1194C27.6948 22.4004 27.4672 22.628 27.1863 22.628H24.8142C24.5331 22.628 24.3057 22.4004 24.3057 22.1194V19.7507C24.3057 19.4697 24.5331 19.2422 24.8142 19.2422H27.1863C27.4672 19.2422 27.6948 19.4697 27.6948 19.7507Z" fill="#5CBEFF"/>
<path d="M27.6949 19.7504V22.1191C27.6949 22.4001 27.4673 22.6277 27.1863 22.6277H24.8143C24.6403 22.6277 24.4898 22.5406 24.3994 22.4102L27.5175 19.3691C27.6279 19.4593 27.6949 19.5965 27.6949 19.7504Z" fill="#079CFF"/>
<path d="M23.2836 27.9529V30.3216C23.2836 30.6026 23.0561 30.8301 22.775 30.8301H20.4031C20.122 30.8301 19.8945 30.6026 19.8945 30.3216V27.9529C19.8945 27.6719 20.122 27.4443 20.4031 27.4443H22.775C23.0561 27.4443 23.2836 27.6719 23.2836 27.9529Z" fill="#5CBEFF"/>
<path d="M23.2837 27.9526V30.3213C23.2837 30.6022 23.0562 30.8298 22.7752 30.8298H20.4031C20.2292 30.8298 20.0786 30.7427 19.9883 30.6124L23.1064 27.5713C23.2167 27.6615 23.2837 27.7987 23.2837 27.9526Z" fill="#079CFF"/>
<path d="M23.2837 23.8513V26.22C23.2837 26.501 23.0561 26.7285 22.7751 26.7285H20.4031C20.122 26.7285 19.8945 26.501 19.8945 26.22V23.8513C19.8945 23.5703 20.122 23.3428 20.4031 23.3428H22.7751C23.0561 23.3428 23.2837 23.5703 23.2837 23.8513Z" fill="#5CBEFF"/>
<path d="M23.2837 23.851V26.2197C23.2837 26.5007 23.0562 26.7282 22.7752 26.7282H20.4031C20.2292 26.7282 20.0786 26.6412 19.9883 26.5108L23.1064 23.4697C23.2167 23.5599 23.2837 23.6971 23.2837 23.851Z" fill="#079CFF"/>
<path d="M23.2836 19.7497V22.1184C23.2836 22.3994 23.0561 22.627 22.775 22.627H20.4031C20.122 22.627 19.8945 22.3994 19.8945 22.1184V19.7497C19.8945 19.4688 20.122 19.2412 20.4031 19.2412H22.775C23.0561 19.2412 23.2836 19.4688 23.2836 19.7497Z" fill="#5CBEFF"/>
<path d="M23.2837 19.7504V22.1191C23.2837 22.4001 23.0562 22.6277 22.7752 22.6277H20.4031C20.2292 22.6277 20.0786 22.5406 19.9883 22.4102L23.1064 19.3691C23.2167 19.4593 23.2837 19.5965 23.2837 19.7504Z" fill="#079CFF"/>
<path d="M19.685 31.5842C19.685 32.7967 18.7021 33.7797 17.4895 33.7797C16.2769 33.7797 15.2939 32.7967 15.2939 31.5842C15.2939 30.3716 16.2769 27.7158 17.4895 27.7158C18.7021 27.7158 19.685 30.3716 19.685 31.5842Z" fill="#4CC66E"/>
<path d="M19.6852 31.5853C19.6852 32.7964 18.7016 33.78 17.4905 33.78C17.1125 33.78 16.7545 33.683 16.4434 33.5157C16.527 33.5258 16.6106 33.5291 16.6943 33.5291C17.9087 33.5291 18.8923 32.5455 18.8923 31.3344C18.8923 30.3541 18.2499 28.4271 17.36 27.7279C17.4035 27.7212 17.447 27.7178 17.4905 27.7178C18.7016 27.7178 19.6852 30.3709 19.6852 31.5853Z" fill="#14A142"/>
<path d="M17.4898 36.2543C17.3051 36.2543 17.1553 36.1045 17.1553 35.9197V30.7476C17.1553 30.5629 17.3051 30.4131 17.4898 30.4131C17.6746 30.4131 17.8244 30.5629 17.8244 30.7476V35.9197C17.8244 36.1045 17.6746 36.2543 17.4898 36.2543Z" fill="#14A142"/>
<path d="M36.7055 31.5842C36.7055 32.7967 35.7226 33.7797 34.51 33.7797C33.2974 33.7797 32.3145 32.7967 32.3145 31.5842C32.3145 30.3716 33.2974 27.7158 34.51 27.7158C35.7226 27.7158 36.7055 30.3716 36.7055 31.5842Z" fill="#4CC66E"/>
<path d="M36.7057 31.5853C36.7057 32.7964 35.7221 33.78 34.511 33.78C34.133 33.78 33.775 33.683 33.4639 33.5157C33.5475 33.5258 33.6311 33.5291 33.7148 33.5291C34.9292 33.5291 35.9128 32.5455 35.9128 31.3344C35.9128 30.3541 35.2705 28.4271 34.3806 27.7279C34.424 27.7212 34.4675 27.7178 34.511 27.7178C35.7221 27.7178 36.7057 30.3709 36.7057 31.5853Z" fill="#14A142"/>
<path d="M34.5103 36.2543C34.3256 36.2543 34.1758 36.1045 34.1758 35.9197V30.7476C34.1758 30.5629 34.3256 30.4131 34.5103 30.4131C34.6951 30.4131 34.8449 30.5629 34.8449 30.7476V35.9197C34.8449 36.1045 34.6951 36.2543 34.5103 36.2543Z" fill="#14A142"/>
<path d="M36.7057 36.0233C36.7057 36.214 36.6288 36.3813 36.5049 36.5051C36.3811 36.6289 36.2138 36.7058 36.0232 36.7058H15.9765C15.5984 36.7058 15.2939 36.4013 15.2939 36.0233C15.2939 35.8325 15.3709 35.6653 15.4946 35.5416C15.6185 35.4178 15.7857 35.3408 15.9765 35.3408H36.0232C36.4012 35.3408 36.7057 35.6453 36.7057 36.0233Z" fill="#435E88"/>
<path d="M36.7055 36.0233C36.7055 36.214 36.6285 36.3813 36.5047 36.5051C36.3809 36.6289 36.2136 36.7058 36.023 36.7058H32.5938C32.7844 36.7058 32.9517 36.6289 33.0755 36.5051C33.1993 36.3813 33.2763 36.214 33.2763 36.0233C33.2763 35.6453 32.9718 35.3408 32.5938 35.3408H36.023C36.401 35.3408 36.7055 35.6453 36.7055 36.0233Z" fill="#33527D"/>
</svg>
