<svg width="20" height="20" viewBox="0 0 20 20" fill="none" xmlns="http://www.w3.org/2000/svg">
<g clip-path="url(#clip0_81_1329)">
<path d="M9.99992 13.3337V9.16699H9.58325M9.58325 13.3337H10.4166M9.99992 7.08366V6.66699" stroke="#7B7C87" stroke-width="1.25" stroke-linecap="round" stroke-linejoin="round"/>
<path d="M7.83356 2.07983C8.384 1.61087 8.65969 1.37591 8.94769 1.23854C9.27636 1.08151 9.63599 1 10.0002 1C10.3645 1 10.7241 1.08151 11.0528 1.23854C11.3408 1.37591 11.6165 1.61087 12.1669 2.07983C12.7344 2.56299 13.3104 2.80742 14.0683 2.86711C14.7893 2.9249 15.1503 2.95427 15.4515 3.06038C16.1469 3.3067 16.6945 3.85334 16.9399 4.54967C17.046 4.85 17.0754 5.21095 17.1332 5.93286C17.1928 6.69078 17.4363 7.26584 17.9195 7.83333C18.3894 8.38376 18.6243 8.65945 18.7617 8.94746C19.08 9.61348 19.08 10.3875 18.7617 11.0526C18.6243 11.3406 18.3894 11.6163 17.9204 12.1667C17.4513 12.6937 17.1739 13.3637 17.1332 14.0681C17.0754 14.7891 17.046 15.15 16.9399 15.4513C16.8184 15.7948 16.6216 16.1067 16.3639 16.3643C16.1062 16.6218 15.7941 16.8184 15.4506 16.9397C15.1503 17.0458 14.7893 17.0751 14.0674 17.1329C13.3095 17.1926 12.7344 17.4361 12.1669 17.9193C11.6165 18.3892 11.3408 18.6241 11.0528 18.7615C10.7241 18.9185 10.3645 19 10.0002 19C9.63599 19 9.27636 18.9185 8.94769 18.7615C8.65969 18.6241 8.384 18.3892 7.83356 17.9202C7.30652 17.4511 6.63654 17.1737 5.93215 17.1329C5.21118 17.0751 4.85023 17.0458 4.54896 16.9397C4.20547 16.8182 3.89352 16.6214 3.63598 16.3637C3.37844 16.106 3.18185 15.7939 3.06061 15.4504C2.9545 15.15 2.92513 14.7891 2.86734 14.0672C2.8267 13.3632 2.54963 12.6936 2.081 12.1667C1.6111 11.6163 1.37614 11.3406 1.23782 11.0526C1.08094 10.7238 0.999592 10.3642 0.999756 9.99991C0.99992 9.63565 1.08159 9.27605 1.23877 8.94746C1.37614 8.65945 1.6111 8.38376 2.08006 7.83333C2.5727 7.25447 2.8086 6.67467 2.86734 5.93192C2.92513 5.21095 2.9545 4.85 3.06061 4.54873C3.18207 4.20524 3.37886 3.89329 3.63656 3.63575C3.89427 3.37821 4.20634 3.18162 4.5499 3.06038C4.85023 2.95427 5.21118 2.9249 5.93309 2.86711C6.63705 2.82647 7.30669 2.54845 7.83356 2.07983Z" stroke="#7B7C87" stroke-width="1.42109" stroke-linecap="round" stroke-linejoin="round"/>
</g>
<defs>
<clipPath id="clip0_81_1329">
<rect width="20" height="20" fill="white"/>
</clipPath>
</defs>
</svg>
