<svg width="24" height="24" viewBox="0 0 24 24" fill="none" xmlns="http://www.w3.org/2000/svg">
<g clip-path="url(#clip0_435_1051)">
<path d="M19.7198 0H1.18641C0.531172 0 0 0.531172 0 1.18641V13.1392C0 13.7944 0.531172 14.3256 1.18641 14.3256H19.7198C20.3751 14.3256 20.9062 13.7944 20.9062 13.1392V1.18641C20.9062 0.531172 20.3751 0 19.7198 0Z" fill="#E57E25"/>
<path d="M20.4249 14.0724C20.5746 13.958 20.6958 13.8106 20.7793 13.6417C20.8627 13.4728 20.906 13.2869 20.9059 13.0985V1.22714C20.9059 0.901683 20.7766 0.589555 20.5465 0.359421C20.3163 0.129288 20.0042 0 19.6787 0L7.80469 0L20.3996 14.0632L20.4249 14.0724Z" fill="#F29C1F"/>
<path d="M13.1012 0H1.22714C0.901683 0 0.589555 0.129288 0.359421 0.359421C0.129288 0.589555 3.1015e-07 0.901683 3.1015e-07 1.22714V13.0985C-0.000129736 13.2812 0.0406383 13.4617 0.119315 13.6266C0.197992 13.7915 0.312584 13.9367 0.454688 14.0516L0.50625 14.0632L13.1012 0Z" fill="#F29C1F"/>
<path d="M19.6791 0H1.22714C0.901683 0 0.589555 0.129288 0.359421 0.359421C0.129288 0.589555 0 0.901683 0 1.22714L0 1.69884L8.85544 7.80089C9.32532 8.12468 9.88249 8.29807 10.4531 8.29807C11.0238 8.29807 11.5809 8.12468 12.0508 7.80089L20.9062 1.69884V1.22714C20.9062 0.901683 20.777 0.589555 20.5468 0.359421C20.3167 0.129288 20.0046 0 19.6791 0Z" fill="#F0C419"/>
<path d="M5.44353 23.9997C5.36661 23.9997 5.29155 23.9761 5.22851 23.9321C5.16547 23.888 5.11751 23.8256 5.09112 23.7534C5.06473 23.6811 5.0612 23.6025 5.08099 23.5282C5.10079 23.4539 5.14296 23.3874 5.20179 23.3379L10.3856 19.0293C10.4231 18.9965 10.4668 18.9715 10.5141 18.9557C10.5614 18.94 10.6113 18.9338 10.661 18.9376C10.7107 18.9414 10.7592 18.955 10.8035 18.9778C10.8479 19.0005 10.8873 19.0318 10.9194 19.0699C10.9515 19.1081 10.9757 19.1522 10.9905 19.1998C11.0054 19.2473 11.0106 19.2974 11.0059 19.347C11.0012 19.3966 10.9866 19.4448 10.963 19.4887C10.9395 19.5327 10.9074 19.5715 10.8687 19.6028L5.68493 23.9115C5.61742 23.9686 5.53189 23.9998 5.44353 23.9997Z" fill="#FF5364"/>
<path d="M9.84003 23.1834C9.76374 23.1834 9.68924 23.1602 9.6265 23.1168C9.56375 23.0734 9.51574 23.0119 9.48887 22.9404C9.462 22.869 9.45755 22.7911 9.47611 22.7171C9.49468 22.6431 9.53537 22.5765 9.59276 22.5263L10.8688 21.3605C10.9058 21.3278 10.9489 21.3028 10.9956 21.2868C11.0423 21.2708 11.0917 21.2642 11.141 21.2674C11.1903 21.2705 11.2384 21.2834 11.2827 21.3052C11.327 21.327 11.3665 21.3574 11.3991 21.3945C11.4316 21.4316 11.4565 21.4748 11.4723 21.5216C11.4881 21.5684 11.4945 21.6178 11.4911 21.6671C11.4878 21.7163 11.4747 21.7644 11.4528 21.8086C11.4308 21.8528 11.4003 21.8923 11.363 21.9246L10.0872 23.0904C10.0189 23.1505 9.93099 23.1835 9.84003 23.1834Z" fill="#35ACEF"/>
<path d="M11.2314 15.7658L13.5973 21.4328L17.9195 14.9489L23.9959 9.15918L11.2314 15.7658Z" fill="#285680"/>
<path d="M23.9958 9.11816L11.5257 16.3921L7.85645 15.4402L23.9958 9.11816Z" fill="#7ED0FC"/>
<path d="M19.6037 13.9287L13.5967 21.4336L14.3056 17.1351L19.6037 13.9287Z" fill="#35ACEF"/>
<path d="M23.9954 9.15953C23.9988 9.14889 24.0033 9.14078 23.9954 9.14866L14.3057 17.1347L20.3082 18.7686L23.9954 9.15953Z" fill="#7ED0FC"/>
</g>
<defs>
<clipPath id="clip0_435_1051">
<rect width="24" height="24" fill="white"/>
</clipPath>
</defs>
</svg>
