<svg width="70" height="70" viewBox="0 0 70 70" fill="none" xmlns="http://www.w3.org/2000/svg">
<rect x="0.5" y="0.5" width="69" height="69" rx="11.5" stroke="#E8E9E8" stroke-dasharray="4 4"/>
<path d="M45 35C45 39.714 45 42.071 43.535 43.535C42.072 45 39.714 45 35 45C30.286 45 27.929 45 26.464 43.535C25 42.072 25 39.714 25 35C25 30.286 25 27.929 26.464 26.464C27.93 25 30.286 25 35 25" stroke="#003032" stroke-width="1.75" stroke-linecap="round"/>
<path d="M25 35.5L26.752 33.967C27.1911 33.5831 27.7597 33.3803 28.3427 33.3998C28.9257 33.4193 29.4795 33.6596 29.892 34.072L34.182 38.362C34.5149 38.6948 34.9546 38.8996 35.4235 38.9402C35.8925 38.9808 36.3608 38.8547 36.746 38.584L37.045 38.374C37.6006 37.9838 38.2721 37.7936 38.9498 37.8344C39.6275 37.8753 40.2713 38.1448 40.776 38.599L44 41.5M38 28.5H41.5M41.5 28.5H45M41.5 28.5V32M41.5 28.5V25" stroke="#003032" stroke-width="1.75" stroke-linecap="round"/>
</svg>
