<svg width="44" height="34" viewBox="0 0 44 34" fill="none" xmlns="http://www.w3.org/2000/svg">
<path d="M25.2632 12.75H29.4737V14.45C30.9474 13.3875 32.6316 12.9625 34.3158 12.75C36 12.75 37.6842 12.9625 39.1579 13.8125C40.6316 14.6625 41.8947 15.9375 42.7368 17.425C43.5789 18.9125 44 20.6125 44 22.3125V34H39.7895V22.3125C39.7895 19.3375 37.2632 17 34.5263 17C31.7895 17 29.2632 19.3375 29.2632 22.3125V34H25.0526V12.75H25.2632ZM21.0526 0V4.25H4.21053V14.875H21.0526V19.125H4.21053V29.75H21.0526V34H0V0H21.0526Z" fill="#003032"/>
</svg>
