<svg width="46" height="36" viewBox="0 0 46 36" fill="none" xmlns="http://www.w3.org/2000/svg">
<path d="M37.707 31.2305H37.2617L33.4062 27.9375C34.707 26.4141 35.8086 24.7617 36.7227 22.9688C37.6367 21.1875 38.0938 19.6758 38.0938 18.4453C38.0938 17.4727 37.8242 16.7461 37.2852 16.2422C36.7461 15.7383 36.125 15.4922 35.4102 15.4922C34.625 15.4922 33.7344 15.7383 32.7266 16.2422C31.7188 16.7461 30.7227 17.3438 29.7148 18.0586C28.707 18.7617 27.793 19.4414 26.9844 20.0742L27.043 35.5898H26.4805L22.0156 32.5781L22.0742 23.707C20.7734 24.6797 19.707 25.418 18.8633 25.9453C18.0312 26.4609 17.2578 26.8242 16.543 27.0352C15.8398 27.2461 15.0547 27.3398 14.1992 27.3398C12.3008 27.3398 10.6016 26.8359 9.08984 25.8281C7.57813 24.8203 6.39453 23.543 5.51563 22.0078C4.63672 20.4609 4.20312 18.9258 4.20312 17.4023C4.20312 15.8789 4.625 14.4258 5.49219 13.2773C6.34766 12.1289 7.44922 11.2266 8.80859 10.5938C10.168 9.96094 11.5742 9.64453 13.0273 9.64453C14.9258 9.64453 16.6484 10.1367 18.1953 11.1211C19.7422 12.1055 21.0664 13.2891 22.1914 14.6602L22.3086 4.61719H2.04687L0.148438 0.984375V0.421875H43.9648L45.8633 4.05469V4.61719H26.8789L26.9375 14.4375C28.168 13.582 29.3633 12.8438 30.5352 12.2344C31.707 11.625 32.7148 11.3086 33.582 11.3086C34.25 11.3086 35.0469 11.5195 35.9492 11.9531C36.8633 12.3867 37.7539 13.0195 38.6328 13.875C39.5117 14.7305 40.2266 15.7969 40.8125 17.0508C41.3867 18.3164 41.6797 19.7812 41.6797 21.457C41.6797 23.1328 41.3398 24.7852 40.6484 26.3086C39.9453 27.8438 38.9727 29.4727 37.707 31.2305ZM22.1328 18.0586V17.7188C21.1602 16.6758 20.0117 15.7852 18.6758 15.0352C17.3398 14.2852 15.9453 13.9219 14.4922 13.9219C12.8867 13.9219 11.4453 14.4023 10.168 15.375C8.87891 16.3477 8.24609 17.7422 8.24609 19.5586C8.24609 20.9766 8.62109 22.0195 9.35938 22.7109C10.0977 23.4023 10.9766 23.7422 11.9844 23.7422C12.875 23.7422 13.8945 23.4492 15.0312 22.875C16.168 22.3008 17.3516 21.5859 18.5703 20.7305C19.7891 19.875 20.9844 18.9844 22.1328 18.0586Z" fill="#003032"/>
</svg>
