<svg width="20" height="20" viewBox="0 0 20 20" fill="none" xmlns="http://www.w3.org/2000/svg">
<g clip-path="url(#clip0_79_1232)">
<path fill-rule="evenodd" clip-rule="evenodd" d="M6.21562 0.887031C7.19312 0.842031 7.50479 0.832031 9.99479 0.832031C12.4848 0.832031 12.7965 0.842865 13.7731 0.887031C14.7498 0.931198 15.4165 1.08703 15.9998 1.31286C16.6106 1.5437 17.1648 1.90453 17.6231 2.3712C18.0898 2.8287 18.4498 3.38203 18.6798 3.9937C18.9065 4.57703 19.0615 5.2437 19.1065 6.2187C19.1515 7.19786 19.1615 7.50953 19.1615 9.9987C19.1615 12.4887 19.1506 12.8004 19.1065 13.7779C19.0623 14.7529 18.9065 15.4195 18.6798 16.0029C18.4498 16.6146 18.0892 17.1689 17.6231 17.627C17.1648 18.0937 16.6106 18.4537 15.9998 18.6837C15.4165 18.9104 14.7498 19.0654 13.7748 19.1104C12.7965 19.1554 12.4848 19.1654 9.99479 19.1654C7.50479 19.1654 7.19312 19.1545 6.21562 19.1104C5.24062 19.0662 4.57396 18.9104 3.99062 18.6837C3.37889 18.4537 2.82464 18.0931 2.36646 17.627C1.90011 17.1693 1.53922 16.6153 1.30896 16.0037C1.08312 15.4204 0.928125 14.7537 0.883125 13.7787C0.838125 12.7995 0.828125 12.4879 0.828125 9.9987C0.828125 7.5087 0.838958 7.19703 0.883125 6.22036C0.927292 5.2437 1.08312 4.57703 1.30896 3.9937C1.53956 3.3821 1.90072 2.82813 2.36729 2.37036C2.82483 1.90412 3.37852 1.54323 3.98979 1.31286C4.57312 1.08703 5.23979 0.932031 6.21479 0.887031H6.21562ZM13.699 2.53703C12.7323 2.49286 12.4423 2.4837 9.99479 2.4837C7.54729 2.4837 7.25729 2.49286 6.29062 2.53703C5.39646 2.57786 4.91146 2.72703 4.58812 2.85286C4.16062 3.01953 3.85479 3.21703 3.53396 3.53786C3.22983 3.83374 2.99577 4.19393 2.84896 4.59203C2.72312 4.91536 2.57396 5.40036 2.53312 6.29453C2.48896 7.2612 2.47979 7.5512 2.47979 9.9987C2.47979 12.4462 2.48896 12.7362 2.53312 13.7029C2.57396 14.597 2.72312 15.082 2.84896 15.4054C2.99562 15.8029 3.22979 16.1637 3.53396 16.4595C3.82979 16.7637 4.19062 16.9979 4.58812 17.1445C4.91146 17.2704 5.39646 17.4195 6.29062 17.4604C7.25729 17.5045 7.54646 17.5137 9.99479 17.5137C12.4431 17.5137 12.7323 17.5045 13.699 17.4604C14.5931 17.4195 15.0781 17.2704 15.4015 17.1445C15.829 16.9779 16.1348 16.7804 16.4556 16.4595C16.7598 16.1637 16.994 15.8029 17.1406 15.4054C17.2665 15.082 17.4156 14.597 17.4565 13.7029C17.5006 12.7362 17.5098 12.4462 17.5098 9.9987C17.5098 7.5512 17.5006 7.2612 17.4565 6.29453C17.4156 5.40036 17.2665 4.91536 17.1406 4.59203C16.974 4.16453 16.7765 3.8587 16.4556 3.53786C16.1597 3.23376 15.7995 2.99971 15.4015 2.85286C15.0781 2.72703 14.5931 2.57786 13.699 2.53703ZM8.82396 12.8245C9.47784 13.0967 10.2059 13.1335 10.8839 12.9285C11.5619 12.7235 12.1476 12.2895 12.5411 11.7006C12.9346 11.1117 13.1115 10.4044 13.0415 9.69962C12.9715 8.99481 12.659 8.33617 12.1573 7.8362C11.8375 7.51659 11.4508 7.27187 11.0251 7.11965C10.5993 6.96743 10.1451 6.9115 9.6952 6.95588C9.24526 7.00026 8.81075 7.14385 8.42296 7.37631C8.03517 7.60877 7.70374 7.92432 7.45254 8.30024C7.20134 8.67616 7.03661 9.1031 6.97022 9.55033C6.90383 9.99756 6.93742 10.4539 7.06857 10.8866C7.19973 11.3193 7.42519 11.7175 7.72872 12.0526C8.03226 12.3877 8.40631 12.6514 8.82396 12.8245ZM6.66312 6.66703C7.10065 6.22951 7.62006 5.88245 8.19171 5.64567C8.76335 5.40888 9.37604 5.28701 9.99479 5.28701C10.6135 5.28701 11.2262 5.40888 11.7979 5.64567C12.3695 5.88245 12.8889 6.22951 13.3265 6.66703C13.764 7.10455 14.111 7.62396 14.3478 8.19561C14.5846 8.76726 14.7065 9.37995 14.7065 9.9987C14.7065 10.6174 14.5846 11.2301 14.3478 11.8018C14.111 12.3734 13.764 12.8928 13.3265 13.3304C12.4428 14.214 11.2444 14.7104 9.99479 14.7104C8.74517 14.7104 7.54674 14.214 6.66312 13.3304C5.77951 12.4468 5.2831 11.2483 5.2831 9.9987C5.2831 8.74908 5.77951 7.55064 6.66312 6.66703ZM15.7515 5.9887C15.8599 5.88642 15.9467 5.76343 16.0067 5.62701C16.0667 5.49059 16.0988 5.3435 16.101 5.19447C16.1031 5.04544 16.0754 4.89749 16.0194 4.75937C15.9633 4.62126 15.8802 4.49579 15.7748 4.3904C15.6694 4.285 15.5439 4.20183 15.4058 4.1458C15.2677 4.08976 15.1197 4.06201 14.9707 4.06418C14.8216 4.06636 14.6746 4.09841 14.5381 4.15844C14.4017 4.21848 14.2787 4.30528 14.1765 4.4137C13.9775 4.62456 13.8686 4.90463 13.8729 5.19447C13.8771 5.48431 13.9941 5.7611 14.1991 5.96607C14.4041 6.17104 14.6808 6.28805 14.9707 6.29228C15.2605 6.29651 15.5406 6.18761 15.7515 5.9887Z" fill="#003032"/>
</g>
<defs>
<clipPath id="clip0_79_1232">
<rect width="20" height="20" fill="white"/>
</clipPath>
</defs>
</svg>
