<svg width="20" height="20" viewBox="0 0 20 20" fill="none" xmlns="http://www.w3.org/2000/svg">
<path d="M7.54578 1.04199C8.68495 1.04199 9.60412 1.04199 10.3266 1.13949C11.0766 1.23949 11.7083 1.45616 12.2099 1.95699C12.6466 2.39449 12.8683 2.93199 12.9841 3.56366C13.0966 4.17783 13.1183 4.92866 13.1233 5.83033C13.1242 5.99609 13.0592 6.15541 12.9426 6.27324C12.826 6.39108 12.6674 6.45777 12.5016 6.45866C12.3359 6.45954 12.1765 6.39454 12.0587 6.27796C11.9409 6.16137 11.8742 6.00275 11.8733 5.83699C11.8683 4.92616 11.8449 4.28033 11.7549 3.78949C11.6674 3.31783 11.5283 3.04366 11.3258 2.84116C11.0949 2.61033 10.7708 2.46033 10.1591 2.37783C9.52995 2.29366 8.69578 2.29199 7.49995 2.29199H6.66662C5.46995 2.29199 4.63578 2.29366 4.00662 2.37783C3.39495 2.46033 3.07162 2.61116 2.83995 2.84116C2.60995 3.07199 2.45995 3.39533 2.37745 4.00783C2.29245 4.63616 2.29162 5.47116 2.29162 6.66699V13.3337C2.29162 14.5295 2.29245 15.3637 2.37745 15.9937C2.45995 16.6053 2.60995 16.9287 2.84078 17.1595C3.07162 17.3903 3.39495 17.5403 4.00662 17.6228C4.63578 17.707 5.46995 17.7087 6.66662 17.7087H7.49995C8.69578 17.7087 9.52995 17.707 10.1599 17.6228C10.7708 17.5403 11.0949 17.3895 11.3258 17.1595C11.5283 16.9562 11.6674 16.6828 11.7549 16.2112C11.8449 15.7203 11.8683 15.0745 11.8733 14.1637C11.8737 14.0816 11.8903 14.0004 11.9221 13.9247C11.9539 13.8491 12.0004 13.7804 12.0587 13.7227C12.117 13.665 12.1862 13.6193 12.2622 13.5883C12.3382 13.5573 12.4195 13.5416 12.5016 13.542C12.5837 13.5424 12.6649 13.559 12.7405 13.5908C12.8162 13.6227 12.8849 13.6691 12.9426 13.7274C13.0003 13.7858 13.046 13.8549 13.077 13.9309C13.108 14.0069 13.1237 14.0882 13.1233 14.1703C13.1183 15.072 13.0966 15.8228 12.9841 16.437C12.8674 17.0687 12.6466 17.6062 12.2091 18.0437C11.7083 18.5453 11.0758 18.7603 10.3258 18.862C9.60412 18.9587 8.68495 18.9587 7.54578 18.9587H6.62078C5.48078 18.9587 4.56245 18.9587 3.83995 18.862C3.08995 18.7603 2.45828 18.5453 1.95662 18.0437C1.45495 17.542 1.23995 16.9103 1.13828 16.1603C1.04162 15.4378 1.04162 14.5187 1.04162 13.3795V6.62116C1.04162 5.48199 1.04162 4.56283 1.13828 3.84033C1.23911 3.09033 1.45495 2.45866 1.95662 1.95699C2.45828 1.45533 3.08995 1.24033 3.83995 1.13949C4.56245 1.04199 5.48162 1.04199 6.62078 1.04199H7.54578Z" fill="#F55850"/>
<path d="M7.49994 9.3753C7.33418 9.3753 7.17521 9.44115 7.058 9.55836C6.94079 9.67557 6.87494 9.83454 6.87494 10.0003C6.87494 10.1661 6.94079 10.325 7.058 10.4422C7.17521 10.5595 7.33418 10.6253 7.49994 10.6253H16.6441L15.0099 12.0253C14.884 12.1332 14.806 12.2866 14.7932 12.452C14.7804 12.6173 14.8338 12.781 14.9416 12.907C15.0495 13.0329 15.2029 13.1109 15.3683 13.1237C15.5336 13.1365 15.6973 13.0832 15.8233 12.9753L18.7399 10.4753C18.8086 10.4166 18.8636 10.3438 18.9014 10.2618C18.9392 10.1798 18.9587 10.0906 18.9587 10.0003C18.9587 9.91002 18.9392 9.82082 18.9014 9.73882C18.8636 9.65682 18.8086 9.58398 18.7399 9.5253L15.8233 7.0253C15.7609 6.9719 15.6886 6.9313 15.6105 6.90584C15.5325 6.88037 15.4502 6.87052 15.3683 6.87687C15.2864 6.88322 15.2066 6.90562 15.1334 6.94282C15.0602 6.98001 14.995 7.03126 14.9416 7.09364C14.8882 7.15601 14.8476 7.2283 14.8221 7.30637C14.7967 7.38443 14.7868 7.46675 14.7932 7.54862C14.7995 7.63049 14.8219 7.71031 14.8591 7.78352C14.8963 7.85673 14.9476 7.9219 15.0099 7.9753L16.6433 9.3753H7.49994Z" fill="#F55850"/>
</svg>
