<svg width="20" height="20" viewBox="0 0 20 20" fill="none" xmlns="http://www.w3.org/2000/svg">
<path fill-rule="evenodd" clip-rule="evenodd" d="M9.95258 1.04199H10.0476C11.9717 1.04199 13.4792 1.04199 14.6559 1.20033C15.8592 1.36199 16.8092 1.70033 17.5551 2.44533C18.3009 3.19116 18.6384 4.14116 18.8001 5.34533C18.9584 6.52116 18.9584 8.02866 18.9584 9.95283V10.0478C18.9584 11.972 18.9584 13.4795 18.8001 14.6562C18.6384 15.8595 18.3001 16.8095 17.5551 17.5553C16.8092 18.3012 15.8592 18.6387 14.6551 18.8003C13.4792 18.9587 11.9717 18.9587 10.0476 18.9587H9.95258C8.02841 18.9587 6.52091 18.9587 5.34425 18.8003C4.14091 18.6387 3.19091 18.3003 2.44508 17.5553C1.69925 16.8095 1.36175 15.8595 1.20008 14.6553C1.04175 13.4795 1.04175 11.972 1.04175 10.0478V9.95283C1.04175 8.02866 1.04175 6.52116 1.20008 5.34449C1.36175 4.14116 1.70008 3.19116 2.44508 2.44533C3.19091 1.69949 4.14091 1.36199 5.34508 1.20033C6.52091 1.04199 8.02841 1.04199 9.95258 1.04199ZM5.51091 2.43866C4.44591 2.58199 3.80341 2.85533 3.32925 3.32949C2.85425 3.80449 2.58175 4.44616 2.43841 5.51199C2.29341 6.59532 2.29175 8.01866 2.29175 10.0003C2.29175 11.982 2.29341 13.4053 2.43841 14.4887C2.58175 15.5545 2.85508 16.197 3.32925 16.672C3.80425 17.1462 4.44591 17.4187 5.51175 17.562C6.59508 17.707 8.01841 17.7087 10.0001 17.7087C11.9817 17.7087 13.4051 17.707 14.4884 17.562C15.5542 17.4187 16.1967 17.1453 16.6717 16.6712C17.1459 16.1962 17.4184 15.5545 17.5617 14.4887C17.7067 13.4053 17.7084 11.982 17.7084 10.0003C17.7084 8.01866 17.7067 6.59532 17.5617 5.51199C17.4184 4.44616 17.1451 3.80366 16.6709 3.32866C16.1959 2.85449 15.5542 2.58199 14.4884 2.43866C13.4051 2.29366 11.9817 2.29199 10.0001 2.29199C8.01841 2.29199 6.59425 2.29366 5.51091 2.43866ZM8.76508 5.38033C8.8246 5.43693 8.87239 5.50471 8.90569 5.5798C8.939 5.65489 8.95718 5.7358 8.95919 5.81792C8.96121 5.90003 8.94701 5.98174 8.91742 6.05837C8.88783 6.135 8.84343 6.20504 8.78675 6.26449L6.40591 8.76449C6.34754 8.82576 6.27734 8.87453 6.19956 8.90786C6.12177 8.94118 6.03804 8.95837 5.95341 8.95837C5.86879 8.95837 5.78505 8.94118 5.70727 8.90786C5.62949 8.87453 5.55929 8.82576 5.50091 8.76449L4.54841 7.76449C4.48938 7.70556 4.44275 7.63541 4.41125 7.55818C4.37976 7.48094 4.36404 7.39818 4.36503 7.31478C4.36601 7.23137 4.38368 7.14901 4.417 7.07254C4.45032 6.99607 4.4986 6.92705 4.55901 6.86953C4.61942 6.81201 4.69073 6.76717 4.76874 6.73765C4.84675 6.70812 4.92988 6.69451 5.01323 6.69761C5.09658 6.70071 5.17847 6.72047 5.25407 6.75571C5.32967 6.79096 5.39745 6.84098 5.45341 6.90283L5.95341 7.42783L7.88175 5.40283C7.99604 5.28286 8.15329 5.21319 8.31893 5.20913C8.48457 5.20507 8.64505 5.26611 8.76508 5.38033ZM10.2084 7.50033C10.2084 7.33457 10.2743 7.17559 10.3915 7.05838C10.5087 6.94117 10.6677 6.87533 10.8334 6.87533H15.0001C15.1658 6.87533 15.3248 6.94117 15.442 7.05838C15.5592 7.17559 15.6251 7.33457 15.6251 7.50033C15.6251 7.66609 15.5592 7.82506 15.442 7.94227C15.3248 8.05948 15.1658 8.12533 15.0001 8.12533H10.8334C10.6677 8.12533 10.5087 8.05948 10.3915 7.94227C10.2743 7.82506 10.2084 7.66609 10.2084 7.50033ZM8.76425 11.2145C9.01425 11.4528 9.02425 11.8478 8.78591 12.0978L6.40508 14.5978C6.34671 14.6591 6.27651 14.7079 6.19872 14.7412C6.12094 14.7745 6.0372 14.7917 5.95258 14.7917C5.86796 14.7917 5.78422 14.7745 5.70644 14.7412C5.62866 14.7079 5.55845 14.6591 5.50008 14.5978L4.54758 13.5978C4.48855 13.5389 4.44191 13.4687 4.41042 13.3915C4.37892 13.3143 4.3632 13.2315 4.36419 13.1481C4.36518 13.0647 4.38285 12.9823 4.41617 12.9059C4.44948 12.8294 4.49777 12.7604 4.55818 12.7029C4.61858 12.6453 4.6899 12.6005 4.7679 12.571C4.84591 12.5415 4.92905 12.5278 5.0124 12.5309C5.09575 12.534 5.17764 12.5538 5.25324 12.589C5.32884 12.6243 5.39662 12.6743 5.45258 12.7362L5.95258 13.2612L7.88091 11.2362C7.99521 11.1162 8.15246 11.0465 8.3181 11.0425C8.48374 11.0384 8.64421 11.1003 8.76425 11.2145ZM10.2084 13.3337C10.2084 13.1679 10.2743 13.0089 10.3915 12.8917C10.5087 12.7745 10.6677 12.7087 10.8334 12.7087H15.0001C15.1658 12.7087 15.3248 12.7745 15.442 12.8917C15.5592 13.0089 15.6251 13.1679 15.6251 13.3337C15.6251 13.4994 15.5592 13.6584 15.442 13.7756C15.3248 13.8928 15.1658 13.9587 15.0001 13.9587H10.8334C10.6677 13.9587 10.5087 13.8928 10.3915 13.7756C10.2743 13.6584 10.2084 13.4994 10.2084 13.3337Z" fill="#7B7C87"/>
</svg>
