<svg width="40" height="40" viewBox="0 0 40 40" fill="none" xmlns="http://www.w3.org/2000/svg">
<rect width="40" height="40" rx="8" fill="white"/>
<g clip-path="url(#clip0_68_585)">
<path d="M26.9135 7.83617V10.801H13.0864V7.83617C13.0864 7.27622 13.5393 6.82324 14.0994 6.82324H25.9005C26.4605 6.82324 26.9135 7.27622 26.9135 7.83617Z" fill="#E5E8EF"/>
<path d="M13.0869 8.7959H26.914V10.8012H13.0869V8.7959Z" fill="#CDD4DF"/>
<path d="M29.5738 11.0109V31.9409H10.4268V11.0109C10.4268 10.2408 11.0484 9.61914 11.8144 9.61914H28.1861C28.9519 9.61914 29.5738 10.2408 29.5738 11.0109Z" fill="#E5E8EF"/>
<path d="M29.5738 31.9422H10.4268L28.1851 9.62109C28.9521 9.62109 29.5738 10.2428 29.5738 11.0098V31.9422Z" fill="#CDD4DF"/>
<path d="M22.6561 26.7235V31.9692H17.3442V26.7235C17.3442 26.2333 17.7437 25.834 18.2337 25.834H21.7667C22.2567 25.834 22.6561 26.2333 22.6561 26.7235Z" fill="#435E88"/>
<path d="M17.3447 31.968L21.7661 25.834C22.2572 25.834 22.6552 26.2321 22.6552 26.7231V31.968H17.3447Z" fill="#33527D"/>
<path d="M27.515 22.4042V25.3195C27.515 25.6654 27.2349 25.9454 26.8891 25.9454H23.9696C23.6237 25.9454 23.3438 25.6654 23.3438 25.3195V22.4042C23.3438 22.0584 23.6237 21.7783 23.9696 21.7783H26.8891C27.2349 21.7783 27.515 22.0584 27.515 22.4042Z" fill="#5CBEFF"/>
<path d="M27.5149 22.4038V25.3192C27.5149 25.665 27.2348 25.9451 26.889 25.9451H23.9696C23.7554 25.9451 23.5702 25.8379 23.459 25.6774L27.2967 21.9346C27.4325 22.0456 27.5149 22.2144 27.5149 22.4038Z" fill="#079CFF"/>
<path d="M27.515 17.3564V20.2717C27.515 20.6175 27.2349 20.8974 26.8891 20.8974H23.9696C23.6237 20.8974 23.3438 20.6175 23.3438 20.2717V17.3564C23.3438 17.0103 23.6237 16.7305 23.9696 16.7305H26.8891C27.2349 16.7305 27.515 17.0103 27.515 17.3564Z" fill="#5CBEFF"/>
<path d="M27.5149 17.356V20.2713C27.5149 20.6171 27.2348 20.8972 26.889 20.8972H23.9696C23.7554 20.8972 23.5702 20.79 23.459 20.6296L27.2967 16.8867C27.4325 16.9977 27.5149 17.1666 27.5149 17.356Z" fill="#079CFF"/>
<path d="M27.515 12.3075V15.2229C27.515 15.5687 27.2349 15.8487 26.8891 15.8487H23.9696C23.6237 15.8487 23.3438 15.5687 23.3438 15.2229V12.3075C23.3438 11.9617 23.6237 11.6816 23.9696 11.6816H26.8891C27.2349 11.6816 27.515 11.9617 27.515 12.3075Z" fill="#5CBEFF"/>
<path d="M27.5149 12.3081V15.2235C27.5149 15.5693 27.2348 15.8494 26.889 15.8494H23.9696C23.7554 15.8494 23.5702 15.7422 23.459 15.5817L27.2967 11.8389C27.4325 11.9499 27.5149 12.1187 27.5149 12.3081Z" fill="#079CFF"/>
<path d="M22.0876 17.3564V20.2717C22.0876 20.6175 21.8077 20.8974 21.4617 20.8974H18.5424C18.1965 20.8974 17.9165 20.6175 17.9165 20.2717V17.3564C17.9165 17.0103 18.1965 16.7305 18.5424 16.7305H21.4617C21.8077 16.7305 22.0876 17.0103 22.0876 17.3564Z" fill="#5CBEFF"/>
<path d="M22.0857 17.356V20.2713C22.0857 20.6171 21.8056 20.8972 21.4598 20.8972H18.5404C18.3262 20.8972 18.141 20.79 18.0298 20.6296L21.8675 16.8867C22.0033 16.9977 22.0857 17.1666 22.0857 17.356Z" fill="#079CFF"/>
<path d="M22.0858 12.3085V15.2238C22.0858 15.5697 21.8057 15.8497 21.4599 15.8497H18.5404C18.1945 15.8497 17.9146 15.5697 17.9146 15.2238V12.3085C17.9146 11.9627 18.1945 11.6826 18.5404 11.6826H21.4599C21.8057 11.6826 22.0858 11.9627 22.0858 12.3085Z" fill="#5CBEFF"/>
<path d="M22.0857 12.3081V15.2235C22.0857 15.5693 21.8056 15.8494 21.4598 15.8494H18.5404C18.3262 15.8494 18.141 15.7422 18.0298 15.5817L21.8675 11.8389C22.0033 11.9499 22.0857 12.1187 22.0857 12.3081Z" fill="#079CFF"/>
<path d="M16.6565 22.4042V25.3195C16.6565 25.6654 16.3765 25.9454 16.0306 25.9454H13.1112C12.7653 25.9454 12.4854 25.6654 12.4854 25.3195V22.4042C12.4854 22.0584 12.7653 21.7783 13.1112 21.7783H16.0306C16.3765 21.7783 16.6565 22.0584 16.6565 22.4042Z" fill="#5CBEFF"/>
<path d="M16.6565 22.4038V25.3192C16.6565 25.665 16.3764 25.9451 16.0306 25.9451H13.1112C12.897 25.9451 12.7118 25.8379 12.6006 25.6774L16.4383 21.9346C16.5741 22.0456 16.6565 22.2144 16.6565 22.4038Z" fill="#079CFF"/>
<path d="M16.6566 17.3554V20.2707C16.6566 20.6165 16.3765 20.8966 16.0307 20.8966H13.1112C12.7653 20.8966 12.4854 20.6165 12.4854 20.2707V17.3554C12.4854 17.0096 12.7653 16.7295 13.1112 16.7295H16.0307C16.3765 16.7295 16.6566 17.0096 16.6566 17.3554Z" fill="#5CBEFF"/>
<path d="M16.6565 17.355V20.2703C16.6565 20.6162 16.3764 20.8962 16.0306 20.8962H13.1112C12.897 20.8962 12.7118 20.7891 12.6006 20.6286L16.4383 16.8857C16.5741 16.9967 16.6565 17.1656 16.6565 17.355Z" fill="#079CFF"/>
<path d="M16.6565 12.3075V15.2229C16.6565 15.5687 16.3765 15.8487 16.0306 15.8487H13.1112C12.7653 15.8487 12.4854 15.5687 12.4854 15.2229V12.3075C12.4854 11.9617 12.7653 11.6816 13.1112 11.6816H16.0306C16.3765 11.6816 16.6565 11.9617 16.6565 12.3075Z" fill="#5CBEFF"/>
<path d="M16.6565 12.3081V15.2235C16.6565 15.5693 16.3764 15.8494 16.0306 15.8494H13.1112C12.897 15.8494 12.7118 15.7422 12.6006 15.5817L16.4383 11.8389C16.5741 11.9499 16.6565 12.1187 16.6565 12.3081Z" fill="#079CFF"/>
<path d="M12.2281 26.8724C12.2281 28.3647 11.0183 29.5746 9.52594 29.5746C8.03355 29.5746 6.82373 28.3647 6.82373 26.8724C6.82373 25.38 8.03355 22.1113 9.52594 22.1113C11.0183 22.1113 12.2281 25.38 12.2281 26.8724Z" fill="#4CC66E"/>
<path d="M12.2283 26.8733C12.2283 28.3639 11.0177 29.5745 9.52706 29.5745C9.06181 29.5745 8.62119 29.4551 8.23828 29.2492C8.34122 29.2617 8.44416 29.2657 8.5471 29.2657C10.0418 29.2657 11.2523 28.0551 11.2523 26.5645C11.2523 25.3579 10.4618 22.9863 9.36651 22.1257C9.41999 22.1175 9.47358 22.1133 9.52706 22.1133C11.0177 22.1133 12.2283 25.3786 12.2283 26.8733Z" fill="#14A142"/>
<path d="M9.52602 32.6208C9.29863 32.6208 9.11426 32.4365 9.11426 32.2091V25.8434C9.11426 25.616 9.29863 25.4316 9.52602 25.4316C9.75342 25.4316 9.93779 25.616 9.93779 25.8434V32.2091C9.93779 32.4365 9.75342 32.6208 9.52602 32.6208Z" fill="#14A142"/>
<path d="M33.1769 26.8724C33.1769 28.3647 31.9671 29.5746 30.4747 29.5746C28.9823 29.5746 27.7725 28.3647 27.7725 26.8724C27.7725 25.38 28.9823 22.1113 30.4747 22.1113C31.9671 22.1113 33.1769 25.38 33.1769 26.8724Z" fill="#4CC66E"/>
<path d="M33.177 26.8733C33.177 28.3639 31.9664 29.5745 30.4758 29.5745C30.0105 29.5745 29.5699 29.4551 29.187 29.2492C29.29 29.2617 29.3929 29.2657 29.4958 29.2657C30.9905 29.2657 32.2011 28.0551 32.2011 26.5645C32.2011 25.3579 31.4105 22.9863 30.3152 22.1257C30.3687 22.1175 30.4223 22.1133 30.4758 22.1133C31.9664 22.1133 33.177 25.3786 33.177 26.8733Z" fill="#14A142"/>
<path d="M30.4748 32.6208C30.2474 32.6208 30.063 32.4365 30.063 32.2091V25.8434C30.063 25.616 30.2474 25.4316 30.4748 25.4316C30.7021 25.4316 30.8865 25.616 30.8865 25.8434V32.2091C30.8865 32.4365 30.7021 32.6208 30.4748 32.6208Z" fill="#14A142"/>
<path d="M33.1767 32.3361C33.1767 32.5707 33.082 32.7766 32.9296 32.929C32.7772 33.0814 32.5713 33.1761 32.3367 33.1761H7.66375C7.1984 33.1761 6.82373 32.8014 6.82373 32.3361C6.82373 32.1013 6.91843 31.8954 7.07073 31.7432C7.22313 31.5908 7.42901 31.4961 7.66375 31.4961H32.3367C32.8019 31.4961 33.1767 31.8709 33.1767 32.3361Z" fill="#435E88"/>
<path d="M33.1768 32.3361C33.1768 32.5707 33.0821 32.7766 32.9297 32.929C32.7773 33.0814 32.5714 33.1761 32.3368 33.1761H28.1162C28.3508 33.1761 28.5567 33.0814 28.7091 32.929C28.8615 32.7766 28.9562 32.5707 28.9562 32.3361C28.9562 31.8709 28.5815 31.4961 28.1162 31.4961H32.3368C32.802 31.4961 33.1768 31.8709 33.1768 32.3361Z" fill="#33527D"/>
</g>
<defs>
<clipPath id="clip0_68_585">
<rect width="28" height="28" fill="white" transform="translate(6 6)"/>
</clipPath>
</defs>
</svg>
