<svg width="24" height="24" viewBox="0 0 24 24" fill="none" xmlns="http://www.w3.org/2000/svg">
<g clip-path="url(#clip0_435_1062)">
<path d="M19.0312 1.45312H16.2188H13.4062C10.6926 1.45312 8.4375 3.66136 8.4375 6.375C8.4375 8.85038 10.3212 10.9048 12.7031 11.2468V13.4062C12.7031 13.6905 12.8741 13.9473 13.1371 14.0558C13.3965 14.164 13.7007 14.106 13.9034 13.9034L16.2188 11.588L16.5099 11.2969H19.0312C21.7449 11.2969 24 9.08864 24 6.375C24 3.66136 21.7449 1.45312 19.0312 1.45312Z" fill="#FED843"/>
<path d="M19.0312 11.2969C21.7449 11.2969 24 9.08864 24 6.375C24 3.66136 21.7449 1.45312 19.0312 1.45312H16.2188V11.588L16.5099 11.2969H19.0312Z" fill="#FABE2C"/>
<path d="M17.9062 17.625V20.4375C17.9062 21.6609 16.9073 22.5469 15.8067 22.5469C11.7562 22.5469 7.80469 20.632 4.86563 17.7047C1.92656 14.7773 0 10.8375 0 6.78703C0 5.62359 0.946406 4.6875 2.10938 4.6875H4.92188C5.22469 4.6875 5.49328 4.88109 5.58844 5.16797L6.99469 9.37687C7.06359 9.58312 7.03312 9.80906 6.91313 9.98953L5.72062 11.7787C6.1725 12.7266 6.97219 13.7625 7.89563 14.6747C8.81953 15.5864 9.86719 16.3744 10.815 16.8263L12.6042 15.6337C12.7856 15.5142 13.0106 15.4828 13.2169 15.5522L17.4356 16.9584C17.7225 17.0536 17.9062 17.3222 17.9062 17.625Z" fill="#FF641A"/>
<path d="M17.9059 17.6251V20.4376C17.9059 21.6611 16.907 22.547 15.8063 22.547C11.7559 22.547 7.8043 20.6321 4.86523 17.7048L7.89523 14.6748C8.81914 15.5865 9.8668 16.3745 10.8146 16.8264L12.6038 15.6339C12.7852 15.5143 13.0102 15.4829 13.2165 15.5523L17.4352 16.9586C17.7221 17.0537 17.9059 17.3223 17.9059 17.6251Z" fill="#F03800"/>
<path d="M13.4062 7.07812C13.7946 7.07812 14.1094 6.76332 14.1094 6.375C14.1094 5.98667 13.7946 5.67188 13.4062 5.67188C13.0179 5.67188 12.7031 5.98667 12.7031 6.375C12.7031 6.76332 13.0179 7.07812 13.4062 7.07812Z" fill="#613D5C"/>
<path d="M16.2188 7.07812C16.6071 7.07812 16.9219 6.76333 16.9219 6.375C16.9219 5.98667 16.6071 5.67188 16.2188 5.67188C15.8304 5.67188 15.5156 5.98667 15.5156 6.375C15.5156 6.76333 15.8304 7.07812 16.2188 7.07812Z" fill="#613D5C"/>
<path d="M16.9219 6.375C16.9219 5.98669 16.6071 5.67188 16.2188 5.67188V7.07812C16.6071 7.07812 16.9219 6.76331 16.9219 6.375Z" fill="#4B2746"/>
<path d="M19.0312 7.07812C19.4196 7.07812 19.7344 6.76332 19.7344 6.375C19.7344 5.98667 19.4196 5.67188 19.0312 5.67188C18.6429 5.67188 18.3281 5.98667 18.3281 6.375C18.3281 6.76332 18.6429 7.07812 19.0312 7.07812Z" fill="#4B2746"/>
</g>
<defs>
<clipPath id="clip0_435_1062">
<rect width="24" height="24" fill="white"/>
</clipPath>
</defs>
</svg>
