<svg width="20" height="20" viewBox="0 0 20 20" fill="none" xmlns="http://www.w3.org/2000/svg">
<g clip-path="url(#clip0_36_607)">
<path d="M1.54817 -0.000476959C1.43515 0.0101746 1.33021 0.0627258 1.25398 0.146842C1.17775 0.230958 1.13575 0.340551 1.13623 0.454068V17.2722C1.13625 17.3928 1.18414 17.5084 1.26938 17.5936C1.35462 17.6789 1.47023 17.7268 1.59078 17.7268H5.14902C5.20925 17.7276 5.26905 17.7165 5.32495 17.6941C5.38084 17.6716 5.43171 17.6383 5.47461 17.596C5.5175 17.5537 5.55157 17.5033 5.57482 17.4477C5.59806 17.3921 5.61004 17.3325 5.61004 17.2722C5.61004 17.212 5.59806 17.1524 5.57482 17.0968C5.55157 17.0412 5.5175 16.9908 5.47461 16.9485C5.43171 16.9062 5.38084 16.8729 5.32495 16.8504C5.26905 16.828 5.20925 16.8169 5.14902 16.8177H2.04533V0.908614H10.2271V3.63589C10.2272 3.75644 10.275 3.87204 10.3603 3.95729C10.4455 4.04253 10.5611 4.09042 10.6817 4.09043H13.409V6.91714C13.0397 6.85276 12.6601 6.82481 12.2726 6.82481C8.63792 6.82481 5.68879 9.77393 5.68879 13.4086C5.68879 17.0433 8.63792 19.9924 12.2726 19.9924C15.9073 19.9924 18.8564 17.0433 18.8564 13.4086C18.8564 10.487 16.9543 8.00531 14.3181 7.14441V3.63589C14.3185 3.57518 14.3068 3.51499 14.2836 3.45888C14.2605 3.40277 14.2263 3.35187 14.1831 3.30918L11.0013 0.127364C10.9156 0.0445039 10.8009 -0.00140461 10.6817 -0.000476959H1.59078C1.57658 -0.0011431 1.56236 -0.0011431 1.54817 -0.000476959ZM11.1362 1.54782L12.7698 3.18134H11.1362V1.54782ZM3.82089 3.18134C3.76119 3.18413 3.70263 3.19865 3.64854 3.22407C3.59445 3.24949 3.5459 3.28532 3.50566 3.32951C3.46542 3.3737 3.43428 3.42538 3.41402 3.48161C3.39375 3.53783 3.38477 3.5975 3.38756 3.6572C3.39036 3.7169 3.40489 3.77546 3.43033 3.82954C3.45576 3.88363 3.4916 3.93217 3.5358 3.9724C3.57999 4.01263 3.63168 4.04376 3.68791 4.06401C3.74414 4.08427 3.80381 4.09324 3.86351 4.09043H8.40896C8.46919 4.09128 8.529 4.08016 8.58489 4.0577C8.64078 4.03523 8.69166 4.00189 8.73455 3.9596C8.77745 3.9173 8.81151 3.86691 8.83476 3.81133C8.85801 3.75576 8.86998 3.69613 8.86998 3.63589C8.86998 3.57565 8.85801 3.51601 8.83476 3.46044C8.81151 3.40487 8.77745 3.35447 8.73455 3.31218C8.69166 3.26988 8.64078 3.23654 8.58489 3.21408C8.529 3.19162 8.46919 3.18049 8.40896 3.18134H3.86351C3.84931 3.18068 3.83509 3.18068 3.82089 3.18134ZM3.82089 5.2268C3.76119 5.22958 3.70263 5.2441 3.64854 5.26953C3.59445 5.29495 3.5459 5.33078 3.50566 5.37497C3.46542 5.41915 3.43428 5.47084 3.41402 5.52706C3.39375 5.58329 3.38477 5.64295 3.38756 5.70265C3.39036 5.76235 3.40489 5.82092 3.43033 5.875C3.45576 5.92908 3.4916 5.97762 3.5358 6.01785C3.57999 6.05809 3.63168 6.08922 3.68791 6.10947C3.74414 6.12972 3.80381 6.1387 3.86351 6.13589H8.40896C8.46919 6.13674 8.529 6.12561 8.58489 6.10315C8.64078 6.08069 8.69166 6.04734 8.73455 6.00505C8.77745 5.96276 8.81151 5.91236 8.83476 5.85679C8.85801 5.80122 8.86998 5.74158 8.86998 5.68134C8.86998 5.6211 8.85801 5.56146 8.83476 5.50589C8.81151 5.45032 8.77745 5.39993 8.73455 5.35763C8.69166 5.31534 8.64078 5.28199 8.58489 5.25953C8.529 5.23707 8.46919 5.22594 8.40896 5.2268H3.86351C3.84931 5.22613 3.83509 5.22613 3.82089 5.2268ZM3.82089 7.27225C3.76119 7.27504 3.70263 7.28956 3.64854 7.31498C3.59445 7.3404 3.5459 7.37623 3.50566 7.42042C3.46542 7.46461 3.43428 7.51629 3.41402 7.57252C3.39375 7.62874 3.38477 7.68841 3.38756 7.74811C3.39036 7.80781 3.40489 7.86637 3.43033 7.92045C3.45576 7.97453 3.4916 8.02308 3.5358 8.06331C3.57999 8.10354 3.63168 8.13467 3.68791 8.15492C3.74414 8.17517 3.80381 8.18415 3.86351 8.18134H6.21436C6.27459 8.18219 6.33439 8.17106 6.39029 8.1486C6.44618 8.12614 6.49706 8.0928 6.53995 8.0505C6.58285 8.00821 6.61691 7.95781 6.64016 7.90224C6.6634 7.84667 6.67538 7.78703 6.67538 7.7268C6.67538 7.66656 6.6634 7.60692 6.64016 7.55135C6.61691 7.49578 6.58285 7.44538 6.53995 7.40309C6.49706 7.36079 6.44618 7.32745 6.39029 7.30499C6.33439 7.28253 6.27459 7.2714 6.21436 7.27225H3.86351C3.84931 7.27158 3.83509 7.27158 3.82089 7.27225ZM12.2726 7.71969C15.416 7.71969 17.9615 10.2652 17.9615 13.4086C17.9615 16.552 15.416 19.0975 12.2726 19.0975C9.12923 19.0975 6.58368 16.552 6.58368 13.4086C6.58368 10.2652 9.12923 7.71969 12.2726 7.71969ZM12.2655 9.33191C12.2058 9.33284 12.1469 9.34552 12.0921 9.36922C12.0373 9.39293 11.9877 9.42719 11.9462 9.47006C11.9046 9.51293 11.8719 9.56356 11.8499 9.61907C11.828 9.67457 11.8171 9.73386 11.8181 9.79356V10.4754C11.5268 10.5346 11.2446 10.6491 11.0013 10.8376C10.6343 11.1219 10.3763 11.5937 10.3763 12.1444C10.3763 12.1468 10.3763 12.1491 10.3763 12.1515C10.3854 12.6695 10.6312 13.1099 10.98 13.366C11.3288 13.6221 11.732 13.74 12.159 13.849C12.557 13.9505 12.8692 14.0557 13.0325 14.1757C13.1923 14.293 13.2523 14.3867 13.2598 14.6657C13.26 14.6719 13.2597 14.6736 13.2598 14.6799C13.256 14.9582 13.1548 15.122 12.9828 15.2552C12.809 15.3898 12.5427 15.4714 12.2726 15.4754H12.2655C11.6218 15.4729 11.3843 15.1964 11.2357 14.893C11.2111 14.8369 11.1754 14.7864 11.1308 14.7444C11.0862 14.7025 11.0336 14.6699 10.9762 14.6488C10.9187 14.6277 10.8575 14.6184 10.7964 14.6215C10.7352 14.6246 10.6753 14.64 10.6203 14.6668C10.5652 14.6936 10.5162 14.7312 10.476 14.7775C10.4359 14.8237 10.4055 14.8776 10.3867 14.9359C10.3679 14.9941 10.3611 15.0556 10.3666 15.1166C10.3721 15.1775 10.3899 15.2368 10.4189 15.2907C10.638 15.7381 11.11 16.2 11.8181 16.3419V17.0166C11.8172 17.0768 11.8283 17.1366 11.8508 17.1925C11.8733 17.2484 11.9066 17.2993 11.9489 17.3422C11.9912 17.3851 12.0416 17.4191 12.0972 17.4424C12.1527 17.4656 12.2124 17.4776 12.2726 17.4776C12.3328 17.4776 12.3925 17.4656 12.448 17.4424C12.5036 17.4191 12.554 17.3851 12.5963 17.3422C12.6386 17.2993 12.6719 17.2484 12.6944 17.1925C12.7169 17.1366 12.728 17.0768 12.7271 17.0166V16.3419C13.0187 16.2827 13.3003 16.1612 13.5439 15.9725C13.9109 15.6882 14.1689 15.2164 14.1689 14.6657C14.1689 14.6633 14.1689 14.661 14.1689 14.6586C14.1598 14.1406 13.914 13.7002 13.5652 13.4441C13.2164 13.188 12.8132 13.0772 12.3862 12.9683C11.9882 12.8667 11.676 12.7544 11.5127 12.6345C11.3511 12.5159 11.2918 12.4307 11.2854 12.1444C11.2853 12.1412 11.2854 12.1405 11.2854 12.1373C11.2873 11.8539 11.3887 11.6894 11.5624 11.5549C11.7362 11.4203 12.0025 11.3387 12.2726 11.3347H12.2797C12.9234 11.337 13.1609 11.6208 13.3095 11.9242C13.3635 12.0321 13.458 12.1143 13.5723 12.1526C13.6867 12.191 13.8116 12.1824 13.9197 12.1288C14.0277 12.0753 14.1102 11.9811 14.1489 11.8668C14.1876 11.7526 14.1795 11.6277 14.1263 11.5194C13.9072 11.0719 13.4352 10.6172 12.7271 10.4754V9.79356C12.7281 9.73267 12.7168 9.67221 12.6939 9.61577C12.6711 9.55933 12.6371 9.50806 12.5941 9.465C12.551 9.42194 12.4997 9.38797 12.4433 9.36511C12.3868 9.34225 12.3264 9.33096 12.2655 9.33191Z" fill="#7B7C87"/>
</g>
<defs>
<clipPath id="clip0_36_607">
<rect width="20" height="20" fill="white"/>
</clipPath>
</defs>
</svg>
