<svg width="20" height="20" viewBox="0 0 20 20" fill="none" xmlns="http://www.w3.org/2000/svg">
<g clip-path="url(#clip0_36_612)">
<path d="M14.6089 10.3748L14.2918 6.99041C14.2582 6.63125 14.0912 6.31413 13.842 6.0871C13.5939 5.86128 13.2624 5.72434 12.899 5.72434H11.9483V8.14056C11.9483 8.39401 11.7423 8.60002 11.4888 8.60002C11.2354 8.60002 11.0294 8.39401 11.0294 8.14056V5.72434H5.19632V8.14056C5.19632 8.39401 4.99031 8.60002 4.73686 8.60002C4.4834 8.60002 4.2774 8.39401 4.2774 8.14056V5.72434H3.32665C2.96328 5.72434 2.63235 5.86068 2.3837 6.0871C2.13446 6.31413 1.96749 6.63065 1.93325 6.99041L1.13085 15.5556C1.11163 15.7616 1.13205 15.955 1.19151 16.1328C1.25037 16.3093 1.35007 16.4757 1.49001 16.6288C1.62875 16.7814 1.78491 16.8955 1.95608 16.9712C2.12665 17.0463 2.31644 17.0847 2.52364 17.0847H10.884C10.5855 16.4673 10.4179 15.7748 10.4179 15.0433C10.4179 13.7466 10.9435 12.5724 11.7933 11.7225C12.5309 10.985 13.5134 10.4913 14.6077 10.3742L14.6089 10.3748ZM14.7585 12.3718C14.8426 12.2685 14.9711 12.2018 15.1152 12.2018C15.2594 12.2018 15.3879 12.2679 15.472 12.3718L17.0119 14.0391C17.1831 14.2252 17.1711 14.5153 16.9849 14.6871C16.7987 14.8583 16.5086 14.8463 16.3369 14.6601L15.5747 13.8349V17.4252C15.5747 17.6787 15.3687 17.8847 15.1152 17.8847C14.8618 17.8847 14.6558 17.6787 14.6558 17.4252V13.8349L13.893 14.6601C13.7218 14.8463 13.4312 14.8583 13.245 14.6871C13.0588 14.5159 13.0468 14.2252 13.2179 14.0391L14.7585 12.3718ZM12.063 17.2691C12.1783 17.427 12.3056 17.576 12.4438 17.7141C13.1272 18.3976 14.0714 18.8204 15.1146 18.8204C16.1579 18.8204 17.102 18.3976 17.7855 17.7141C18.469 17.0307 18.8918 16.0865 18.8918 15.0433C18.8918 14 18.469 13.0559 17.7855 12.3724C17.102 11.6889 16.1579 11.2661 15.1146 11.2661C14.0714 11.2661 13.1272 11.6889 12.4438 12.3724C11.7603 13.0559 11.3375 14 11.3375 15.0433C11.3375 15.8751 11.6065 16.6451 12.0624 17.2691H12.063ZM11.4696 18.0036H2.52425C2.18971 18.0036 1.8756 17.9388 1.58671 17.8108C1.29782 17.6835 1.03836 17.4943 0.812534 17.2463C0.587308 16.9994 0.423945 16.7237 0.323645 16.4234C0.223945 16.1243 0.18911 15.806 0.219741 15.4727L1.02214 6.90753C1.078 6.30933 1.35488 5.7844 1.76629 5.40903C2.1795 5.03305 2.72785 4.80602 3.32665 4.80602H4.2774V4.11533C4.2774 3.06008 4.70863 2.10092 5.40352 1.40602C6.09842 0.711129 7.05758 0.279297 8.11283 0.279297C9.16809 0.279297 10.1272 0.711129 10.8221 1.40602C11.517 2.10092 11.9489 3.06008 11.9489 4.11533V4.80602H12.8996C13.4984 4.80602 14.0468 5.03305 14.46 5.40903C14.872 5.7844 15.1483 6.30933 15.2041 6.90753L15.5278 10.3652C16.66 10.4637 17.6774 10.964 18.436 11.7225C19.2858 12.5724 19.8113 13.7466 19.8113 15.0433C19.8113 16.34 19.2858 17.5141 18.436 18.3634C17.5861 19.2132 16.4125 19.7394 15.1158 19.7394C13.8191 19.7394 12.645 19.2132 11.7951 18.3634C11.681 18.2493 11.5723 18.1285 11.4702 18.003L11.4696 18.0036ZM5.19632 4.80602H11.0294V4.11533C11.0294 3.31353 10.7008 2.585 10.1723 2.05587C9.64376 1.52735 8.91464 1.19882 8.11283 1.19882C7.31103 1.19882 6.5825 1.52674 6.05337 2.05587C5.52425 2.585 5.19632 3.31353 5.19632 4.11533V4.80602Z" fill="#003032"/>
</g>
<defs>
<clipPath id="clip0_36_612">
<rect width="20" height="20" fill="white"/>
</clipPath>
</defs>
</svg>
