<svg width="20" height="20" viewBox="0 0 20 20" fill="none" xmlns="http://www.w3.org/2000/svg">
<path d="M13.7072 13.2434L18.8037 8.18856L18.8683 8.11427C18.9639 7.98478 19.01 7.82485 18.9982 7.66383C18.9863 7.50281 18.9172 7.35151 18.8037 7.2377L13.7072 2.18512L13.6369 2.12455C13.2289 1.81598 12.6282 2.11312 12.6282 2.66055V5.09484L12.3732 5.11198C8.33524 5.43427 5.97001 8.01142 5.40561 12.6857C5.33308 13.2857 6.01534 13.6617 6.45733 13.264C8.07911 11.8034 9.75528 10.896 11.4949 10.5326C11.7737 10.4743 12.0536 10.4297 12.3358 10.3988L12.6282 10.3726V12.768L12.6339 12.8617C12.7019 13.3794 13.3241 13.6229 13.7072 13.2434ZM12.456 6.25141L13.7616 6.16341V3.83998L17.667 7.71199L13.7616 11.5863V9.12113L12.2248 9.26056H12.2157C10.2857 9.4697 8.46443 10.2491 6.74519 11.5486C7.08292 10.0183 7.65978 8.86742 8.41797 8.04342C9.35862 7.02056 10.6733 6.39541 12.456 6.25141ZM4.83329 3.14284C4.08185 3.14284 3.3612 3.44386 2.82985 3.97968C2.29851 4.51549 2 5.24222 2 5.99998V15.1429C2 15.9006 2.29851 16.6273 2.82985 17.1632C3.3612 17.699 4.08185 18 4.83329 18H13.8998C14.6513 18 15.3719 17.699 15.9033 17.1632C16.4346 16.6273 16.7331 15.9006 16.7331 15.1429V14C16.7331 13.8484 16.6734 13.7031 16.5671 13.5959C16.4609 13.4888 16.3167 13.4286 16.1665 13.4286C16.0162 13.4286 15.872 13.4888 15.7658 13.5959C15.6595 13.7031 15.5998 13.8484 15.5998 14V15.1429C15.5998 15.5975 15.4207 16.0335 15.1019 16.355C14.7831 16.6765 14.3507 16.8571 13.8998 16.8571H4.83329C4.38243 16.8571 3.95003 16.6765 3.63123 16.355C3.31242 16.0335 3.13332 15.5975 3.13332 15.1429V5.99998C3.13332 5.54533 3.31242 5.10929 3.63123 4.7878C3.95003 4.46631 4.38243 4.2857 4.83329 4.2857H8.23324C8.38353 4.2857 8.52766 4.22549 8.63393 4.11833C8.7402 4.01116 8.7999 3.86582 8.7999 3.71427C8.7999 3.56271 8.7402 3.41737 8.63393 3.3102C8.52766 3.20304 8.38353 3.14284 8.23324 3.14284H4.83329Z" fill="#7B7C87"/>
</svg>
