<svg width="254" height="181" viewBox="0 0 254 181" fill="none" xmlns="http://www.w3.org/2000/svg">
<path d="M85.5749 150.25H107.721C108.744 150.25 109.574 151.08 109.574 152.103V152.955C109.574 153.978 108.744 154.808 107.721 154.808H85.5749C84.5513 154.808 83.7215 153.978 83.7215 152.955V152.103C83.7215 151.08 84.5513 150.25 85.5749 150.25Z" fill="#281C1F"/>
<path d="M17.4917 150.267C17.767 143.689 20.4135 138.355 23.4031 138.355C26.3927 138.355 28.5929 143.689 28.3176 150.267C28.0422 156.846 25.3957 162.179 22.4061 162.179C19.4165 162.179 17.2163 156.846 17.4917 150.267Z" fill="#38282B"/>
<path d="M17.0285 145.691H24.3096L22.672 162.179H15.391L17.0285 145.691Z" fill="#38282B"/>
<path d="M65.139 150.267C65.4144 143.689 68.0609 138.355 71.0505 138.355C74.04 138.355 76.2399 143.689 75.9645 150.267C75.6892 156.846 73.0426 162.179 70.0534 162.179C67.0638 162.179 64.8637 156.846 65.139 150.267Z" fill="#38282B"/>
<path d="M64.6758 145.691H71.9565L70.319 162.179H63.0383L64.6758 145.691Z" fill="#38282B"/>
<path d="M133.828 150.267C134.103 143.689 136.75 138.355 139.739 138.355C142.729 138.355 144.929 143.689 144.653 150.267C144.378 156.846 141.732 162.179 138.742 162.179C135.753 162.179 133.553 156.846 133.828 150.267Z" fill="#38282B"/>
<path d="M133.364 145.691H140.646L139.008 162.179H131.727L133.364 145.691Z" fill="#38282B"/>
<path d="M157.453 104.202L141.425 132.149L134.73 132.13L133.349 62.9004L146.809 76.5041L157.453 104.202Z" fill="#F28F36"/>
<path d="M85.6984 162.178C82.7165 162.021 80.58 156.562 80.9264 149.986C81.2728 143.409 83.971 138.205 86.9529 138.362C89.9347 138.519 92.0712 143.978 91.7248 150.554C91.3784 157.131 88.6803 162.335 85.6984 162.178Z" fill="#38282B"/>
<path d="M80.442 145.691H87.7231L86.0856 162.179H78.8045L80.442 145.691Z" fill="#38282B"/>
<path d="M20.118 59.8738L41.3081 53.8535L39.2785 65.605L15.0277 67.7416L15.1598 65.9566C15.3715 63.0894 17.3521 60.6595 20.118 59.8738Z" fill="#C9BBA9"/>
<path d="M20.1201 59.8724L37.2832 54.9961C35.0508 56.9643 30.4192 59.236 24.8303 60.9244C21.7135 61.866 18.743 62.4923 16.2139 62.7924C17.0954 61.4036 18.4654 60.3423 20.1201 59.8724Z" fill="#DBCCBD"/>
<path d="M153.688 104.949L142.43 124.577L137.728 124.565L136.759 75.9414L146.212 85.496L153.688 104.949Z" fill="#E2601E"/>
<path d="M100.716 151.852H119.5C120.45 151.852 121.219 152.621 121.219 153.57V154.691C121.219 155.64 120.45 156.41 119.5 156.41H100.716C99.7671 156.41 98.9979 155.641 98.9979 154.691V153.57C98.9979 152.621 99.7671 151.852 100.716 151.852Z" fill="#281C1F"/>
<path d="M58.2946 150.267C58.2946 143.689 60.4709 138.355 63.1552 138.355C65.8399 138.355 68.0161 143.689 68.0161 150.267C68.0161 156.846 65.8399 162.179 63.1552 162.179C60.4709 162.179 58.2946 156.846 58.2946 150.267Z" fill="#281C1F"/>
<path d="M131.812 162.179C129.127 162.179 126.951 156.846 126.951 150.267C126.951 143.688 129.127 138.355 131.812 138.355C134.497 138.355 136.673 143.688 136.673 150.267C136.673 156.846 134.497 162.179 131.812 162.179Z" fill="#281C1F"/>
<path d="M7.22367 141.133H40.1039C41.0642 141.133 41.8428 141.911 41.8428 142.872V151.359C41.8428 152.319 41.0642 153.098 40.1039 153.098H7.22367C6.2633 153.098 5.48476 152.319 5.48476 151.359V142.872C5.48438 141.911 6.26293 141.133 7.22367 141.133Z" fill="#38282B"/>
<path d="M54.1196 152.885H147.864L149.848 144.338L52.6313 146.261L54.1196 152.885Z" fill="#38282B"/>
<path d="M31.7293 144.338H59.3647C60.2491 144.338 60.9663 145.055 60.9663 145.939V154.701C60.9663 155.586 60.2491 156.303 59.3647 156.303H31.7293C30.8449 156.303 30.1277 155.586 30.1277 154.701V145.939C30.1277 145.055 30.8449 144.338 31.7293 144.338Z" fill="#54383C"/>
<path d="M27.3503 137.002L62.6758 139.352V150.462H33.475V148.112H27.3503V137.002Z" fill="#38282B"/>
<path d="M48.7866 154.701V145.939C48.7866 145.055 48.0695 144.338 47.185 144.338H60.2182C61.1026 144.338 61.8198 145.055 61.8198 145.939V154.701C61.8198 155.586 61.103 156.303 60.2182 156.303H47.185C48.0695 156.303 48.7866 155.586 48.7866 154.701Z" fill="#38282B"/>
<path d="M115.932 150.783H133.008C133.773 150.783 134.394 151.403 134.394 152.169V153.668C134.394 154.433 133.773 155.053 133.008 155.053H115.932C115.167 155.053 114.546 154.433 114.546 153.668V152.169C114.546 151.403 115.167 150.783 115.932 150.783Z" fill="#E5CFB1"/>
<path d="M49.6407 60.4408L57.1901 51.3246L131.509 51.3242L153.908 141.454L151.237 148.255H49.6407V60.4408Z" fill="#FFC05A"/>
<path d="M131.51 51.3242L136.307 70.625L49.642 70.6254V60.4408L57.1913 51.3246L131.51 51.3242Z" fill="#F4AC45"/>
<path d="M77.8922 79.5605H139.193L149.547 123.934H88.246L77.8922 79.5605Z" fill="#F4AC45"/>
<path d="M88.3539 93.4375H138.194L146.611 129.515H96.7719L88.3539 93.4375Z" fill="#F28F36"/>
<path d="M84.5519 87.7988H138.161L147.215 126.604H93.6067L84.5519 87.7988Z" fill="#2B1E21"/>
<path d="M128.918 116.824L131.2 126.605H93.6053L91.3232 116.824H128.918Z" fill="#38282B"/>
<path d="M109.2 117.684C110.643 116.936 111.925 117.897 112.299 118.699C112.672 119.5 112.566 119.82 110.483 121.156L109.895 121.583C109.895 121.583 107.758 118.432 109.2 117.684Z" fill="#5C8E79"/>
<path d="M116.835 119.399C116.772 118.154 117.331 118.259 117.331 118.259C117.331 118.259 120.309 117.45 123.3 119.78L122.951 120.161C121.055 119.255 117.577 121.668 117.577 121.668C117.577 121.668 116.898 120.644 116.835 119.399Z" fill="#5C8E79"/>
<path d="M110.109 120.781C110.109 120.781 103.699 121.262 99.9063 126.604H116.981C115.182 123.901 113.06 121.699 110.109 120.781Z" fill="#5C8E79"/>
<path d="M110.109 120.781C112.378 121.487 114.156 122.953 115.674 124.821C114.128 125.156 111.859 125.05 109.428 124.428C107.548 123.947 105.903 123.243 104.698 122.469C107.544 120.975 110.109 120.781 110.109 120.781Z" fill="#6EAF91"/>
<path d="M122.083 119.338C122.083 119.338 132.694 117.41 137.884 126.604H116.019L122.083 119.338Z" fill="#5C8E79"/>
<path d="M137.05 125.299C135.044 125.561 132.701 125.555 130.23 125.222C125.95 124.644 122.299 123.223 120.247 121.535L122.081 119.339C122.081 119.339 131.642 117.608 137.05 125.299Z" fill="#6EAF91"/>
<path d="M5.05703 121.723L13.2117 64.5353L34.5425 61.7578V146.118H5.05703V121.723Z" fill="#EDE1D3"/>
<path d="M24.7278 120.492C28.5641 121.794 31.8907 123.844 34.5425 126.363V146.118H5.05704V121.723L5.06677 121.656C10.5704 118.75 17.7337 118.118 24.7278 120.492Z" fill="#E5D8C7"/>
<path d="M132.343 54.673C125.009 55.8301 115.692 56.5233 105.551 56.5233C87.6917 56.5233 72.3898 54.3755 65.9729 51.3242H131.511L132.343 54.673Z" fill="#FFC05A"/>
<path d="M31.872 60.761L39.4214 51.3242H72.5743L95.5254 148.576H31.872V60.761Z" fill="#EA9C36"/>
<path d="M31.871 148.576V86.4746C44.8013 88.6632 58.8068 96.2324 70.3985 108.43C82.1545 120.8 89.0266 135.406 90.4229 148.577L31.871 148.576Z" fill="#ED8E2F"/>
<path d="M31.8722 144.838H73.0376V145.906H31.8722V144.838Z" fill="#EA802A"/>
<path d="M41.9649 51.3242H51.2681H53.6895V134.269H51.2678H41.9646H39.5433V51.3242H41.9649ZM52.4347 133.014V52.5794H51.2685V133.014H52.4347ZM50.0134 133.014V52.5794H43.2205V133.014H50.0134ZM40.7992 133.014H41.9653V52.5794H40.7992V133.014Z" fill="#54383C"/>
<path d="M66.651 51.3242H69.0723V134.269H66.6506H56.4929H53.3813V51.3242H56.4929H66.651ZM67.8171 133.014V52.5794H66.651V133.014H67.8171ZM65.3958 133.014V52.5794H57.7488V133.014H65.3958ZM55.3271 52.5794V133.014H56.4933V52.5794H55.3271Z" fill="#54383C"/>
<path d="M40.1723 51.3242H50.6416V133.014H40.1723V51.3242Z" fill="#E2601E"/>
<path d="M54.7002 51.3242H66.0244V133.014H54.7002V51.3242Z" fill="#E2601E"/>
<path d="M42.5888 51.3242H53.0581V133.014H42.5888V51.3242Z" fill="#EA802A"/>
<path d="M57.1187 51.3242H68.4429V133.014H57.1187V51.3242Z" fill="#EA802A"/>
<path d="M8.03778 149.538C8.31912 141.887 11.1508 135.875 14.6051 135.875C18.0593 135.875 20.891 141.887 21.1724 149.538H8.03778Z" fill="#38282B"/>
<path d="M14.9394 162.179C12.2548 162.179 10.0785 156.846 10.0785 150.267C10.0785 143.688 12.2548 138.355 14.9394 138.355C17.624 138.355 19.8003 143.688 19.8003 150.267C19.8003 156.846 17.624 162.179 14.9394 162.179Z" fill="#54383C"/>
<path d="M71.675 149.538C71.956 141.887 74.788 135.875 78.2423 135.875C81.6965 135.875 84.5286 141.887 84.8096 149.538H71.675Z" fill="#38282B"/>
<path d="M78.8246 162.179C76.14 162.179 73.9637 156.846 73.9637 150.267C73.9637 143.688 76.14 138.355 78.8246 138.355C81.5092 138.355 83.6855 143.688 83.6855 150.267C83.6855 156.846 81.5092 162.179 78.8246 162.179Z" fill="#54383C"/>
<path d="M90.7576 139.424H157.304C157.966 139.424 158.502 139.96 158.502 140.621V148.981C158.502 149.642 157.966 150.178 157.304 150.178H90.7576C90.0962 150.178 89.56 149.642 89.56 148.981V140.621C89.5604 139.96 90.0965 139.424 90.7576 139.424Z" fill="#F4AC45"/>
<path d="M95.8105 141.24H157.559C158.139 141.24 158.609 141.711 158.609 142.291V149.128C158.609 149.708 158.139 150.178 157.559 150.178H95.8105C95.2302 150.178 94.76 149.708 94.76 149.128V142.291C94.7596 141.711 95.2302 141.24 95.8105 141.24Z" fill="#FFC05A"/>
<path d="M100.103 104.17L84.1498 132.159H77.455L75.8878 62.9331L84.7193 59.3008L99.8183 80.1684L100.103 104.17Z" fill="#F28F36"/>
<path d="M78.843 61.8652H137.244C142.229 61.8652 154.479 88.5728 154.479 106.734H94.2264L78.843 61.8652Z" fill="#F28F36"/>
<path d="M97.2163 104.17L81.2631 132.159H74.5683L73.0014 62.9331L81.8325 59.3008L96.9316 80.1684L97.2163 104.17Z" fill="#F4AC45"/>
<path d="M81.8348 59.3008H140.236C145.221 59.3008 157.471 86.0084 157.471 104.17H97.2186L81.8348 59.3008Z" fill="#FFC05A"/>
<path d="M130.102 60.4501C135.941 62.3454 141.506 64.3742 146.677 66.4663C150.535 73.3153 154.638 84.0675 156.477 94.1934C146.563 92.7463 134.559 89.9011 121.879 85.785C107.584 81.1452 94.9334 75.7037 85.6732 70.5L81.8332 59.3008H126.469C127.674 59.673 128.884 60.055 130.102 60.4501Z" fill="#FFCA76"/>
<path d="M76.4154 125.679C76.4154 123.32 77.1666 121.408 78.093 121.408C79.0196 121.408 79.7705 123.32 79.7705 125.679C79.7705 128.037 79.0193 129.949 78.093 129.949C77.1666 129.949 76.4154 128.037 76.4154 125.679Z" fill="#E55E23"/>
<path d="M80.2262 63.0691C80.2262 61.9296 80.5891 61.0059 81.0369 61.0059C81.4844 61.0059 81.8477 61.9296 81.8477 63.0691C81.8477 64.2087 81.4848 65.1324 81.0369 65.1324C80.5895 65.1324 80.2262 64.2083 80.2262 63.0691Z" fill="#E55E23"/>
<path d="M73.7115 65.8461C73.7115 64.711 74.0729 63.791 74.5188 63.791C74.9648 63.791 75.3262 64.711 75.3262 65.8461C75.3262 66.9811 74.9648 67.9011 74.5188 67.9011C74.0732 67.9011 73.7115 66.9808 73.7115 65.8461Z" fill="#E55E23"/>
<path d="M93.4125 103.737C93.4125 102.914 93.6744 102.248 93.9973 102.248C94.3202 102.248 94.582 102.914 94.582 103.737C94.582 104.559 94.3202 105.225 93.9973 105.225C93.6744 105.225 93.4125 104.559 93.4125 103.737Z" fill="#E55E23"/>
<path d="M75.4291 150.268C75.4291 146.442 76.6947 143.34 78.2563 143.34C79.8175 143.34 81.0835 146.441 81.0835 150.268C81.0835 154.094 79.8178 157.196 78.2563 157.196C76.6947 157.196 75.4291 154.094 75.4291 150.268Z" fill="#38282B"/>
<path d="M76.7766 150.268C76.7766 147.484 77.6633 145.229 78.7572 145.229C79.8511 145.229 80.7378 147.484 80.7378 150.268C80.7378 153.051 79.8511 155.307 78.7572 155.307C77.6633 155.307 76.7766 153.05 76.7766 150.268Z" fill="#E5CFB1"/>
<path d="M12.0418 150.268C12.0418 146.442 13.3075 143.34 14.8691 143.34C16.4303 143.34 17.6959 146.442 17.6963 150.268C17.6963 154.094 16.4306 157.196 14.8691 157.196C13.3075 157.196 12.0418 154.094 12.0418 150.268Z" fill="#38282B"/>
<path d="M13.391 150.268C13.391 147.484 14.2777 145.229 15.372 145.229C16.4659 145.229 17.3525 147.484 17.3525 150.268C17.3525 153.051 16.4659 155.307 15.372 155.307C14.278 155.307 13.391 153.051 13.391 150.268Z" fill="#E5CFB1"/>
<path d="M2.00661 135.863H5.40247C6.35274 135.863 7.12305 136.634 7.12305 137.584V152.125C7.12305 153.076 6.35274 153.846 5.40247 153.846H2.00661C1.05635 153.846 0.286035 153.076 0.286035 152.125V137.584C0.286035 136.634 1.05635 135.863 2.00661 135.863Z" fill="#C9BBA9"/>
<path d="M15.1703 68.4881L28.5601 66.209V115.636L8.19076 115.636L15.1703 68.4881Z" fill="#447499"/>
<path d="M15.9981 70.9764L25.8887 69.3438V113.821H10.1132L15.9981 70.9764Z" fill="#5891B7"/>
<path d="M13.9306 83.2316L15.5557 69.9844L16.8809 70.0558V114.996H13.9306V83.2316Z" fill="#447499"/>
<path d="M44.5663 153.392C44.5663 152.433 45.0563 151.656 45.6613 151.656C46.2663 151.656 46.7563 152.434 46.7563 153.392C46.7563 154.351 46.2663 155.128 45.6613 155.128C45.0567 155.128 44.5663 154.351 44.5663 153.392Z" fill="#7F5059"/>
<path d="M7.7061 116.056H28.9785V65.7148L14.8013 68.1279L7.7061 116.056ZM28.142 115.219H8.67658L15.5402 68.8511L28.142 66.7063V115.219Z" fill="#54383C"/>
<path d="M14.7432 66.9941H16.1675V116.563H14.7432V66.9941Z" fill="#EDE1D3"/>
<path d="M3.41778 100.693L10.6113 98.2539V99.6782L3.41778 102.117V100.693Z" fill="#54383C"/>
<path d="M1.92274 114.986H8.33252V116.054H1.92274V114.986Z" fill="#54383C"/>
<path d="M0.551816 101.633L8.11914 99.1758L6.26725 116.055H-9.53674e-07L0.551816 101.633Z" fill="#54383C"/>
<path d="M1.60026 102.603L6.76123 100.965L5.39532 114.917H1.13337L1.60026 102.603Z" fill="#5891B7"/>
<path d="M2.0047 135.863H5.40057C5.5143 135.863 5.62505 135.876 5.73242 135.897V144.434C5.73242 145.384 4.96211 146.154 4.01185 146.154H0.61596C0.502228 146.154 0.391503 146.142 0.284131 146.121V137.584C0.284131 136.634 1.05444 135.863 2.0047 135.863Z" fill="#DBCCBD"/>
<path d="M22.7442 141.267H28.9785V115.708H28.1416V140.431H23.2829L21.7924 137.156C20.5088 134.336 17.6962 132.525 14.5977 132.525H11.457L8.96127 115.576L8.13334 115.698L10.7346 133.362H14.5974C17.3681 133.362 19.8833 134.981 21.0307 137.502L22.7442 141.267Z" fill="#54383C"/>
<path d="M6.53494 132.588H9.68652V134.938H6.53494V132.588Z" fill="#C9BBA9"/>
<path d="M6.30397 133.004H9.12744V134.519H6.30397V133.004Z" fill="#CE4545"/>
<path d="M84.2571 135.008H88.3877V138.355H84.2571V135.008Z" fill="#EA802A"/>
<path d="M84.1492 135.578H87.4609V137.786H84.1492V135.578Z" fill="#C42F20"/>
<path d="M100.254 101.611H153.061V101.023C153.061 94.0255 150.876 84.543 147.215 75.6573C144.468 68.9879 140.513 61.8613 137.656 61.8613H86.6254L100.254 101.611ZM151.88 100.435H101.094L88.2722 63.0372H137.656C141.225 63.0372 151.62 84.891 151.88 100.435Z" fill="#EA802A"/>
<path d="M91.9268 98.917L81.2569 117.637H76.7794L75.7315 71.3374L81.6381 68.9082L91.9268 98.917Z" fill="#EA802A"/>
<path d="M81.6378 68.9082L81.9678 69.8708L78.402 71.3374L79.45 117.637H76.7791L75.7312 71.3374L81.6378 68.9082Z" fill="#E2601E"/>
<path d="M77.7363 125.679C77.7363 124.498 78.1127 123.541 78.5766 123.541C79.0405 123.541 79.4165 124.498 79.4165 125.679C79.4165 126.861 79.0405 127.818 78.5766 127.818C78.1123 127.818 77.7363 126.861 77.7363 125.679Z" fill="#38282B"/>
<path d="M74.2092 65.8466C74.2092 65.2615 74.3955 64.7871 74.6256 64.7871C74.8557 64.7871 75.042 65.2615 75.042 65.8466C75.042 66.4317 74.8557 66.9061 74.6256 66.9061C74.3959 66.9061 74.2092 66.4317 74.2092 65.8466Z" fill="#38282B"/>
<path d="M80.8134 63.0682C80.8134 62.4554 81.0086 61.959 81.2492 61.959C81.4898 61.959 81.6851 62.4554 81.6851 63.0682C81.6851 63.6807 81.4901 64.1775 81.2492 64.1775C81.0086 64.1771 80.8134 63.6807 80.8134 63.0682Z" fill="#38282B"/>
<path d="M5.57128 113.12L1.29884 110.56L1.60037 102.604L1.7126 102.568L6.25928 106.092L5.57128 113.12Z" fill="#67AACE"/>
<path d="M102.49 169.439L101.483 178.814L99.5577 178.848L98.3936 170.153L102.49 169.439Z" fill="#591800"/>
<path d="M103.233 169.246L102.171 178.719L101.481 178.815L102.489 169.441L103.233 169.246Z" fill="#591800"/>
<path d="M123.615 170.259L123.065 178.438L122.225 178.377L121.894 169.549L123.615 170.259Z" fill="#591800"/>
<path d="M126.785 169.621L124.927 178.34L123.067 178.439L123.135 170.304L126.785 169.621Z" fill="url(#paint0_linear_134_1139)"/>
<path d="M125.915 173.696L122.357 173.676L121.9 169.736L126.707 169.975L125.915 173.696Z" fill="#591800"/>
<path d="M122.461 170.668L127.65 170.579C129.449 165.288 132.183 151.544 132.013 141.729L131.067 140.838L123.086 139.92L122.461 170.668Z" fill="#8B011B"/>
<path style="mix-blend-mode:color-dodge" opacity="0.27" d="M118.011 150.92L83.1489 151.889L93.5611 157.983L118.407 156.181L118.011 150.92Z" fill="url(#paint1_linear_134_1139)"/>
<path style="mix-blend-mode:color-dodge" opacity="0.27" d="M120.123 161.424L119.198 166.261L89.9587 165.305L84.0801 161.833L120.123 161.424Z" fill="url(#paint2_linear_134_1139)"/>
<path d="M122.94 149.346L122.555 156.733L123.743 157.023L126.122 150.011L122.94 149.346Z" fill="#776A98"/>
<path d="M119.259 156.472L122.601 155.844L124.018 156.219L127.067 158.524L119.259 156.472Z" fill="#776A98"/>
<path style="mix-blend-mode:color-dodge" d="M123.206 150.012L124.305 150.609L123.349 155.443L122.772 155.235L123.206 150.012Z" fill="url(#paint3_linear_134_1139)"/>
<path d="M123.695 133.698L123.944 133.436L130.724 134.893L130.936 135.299L123.695 133.698Z" fill="#776A98"/>
<path d="M122.925 133.527L132.002 135.535L132.337 151.306L116.637 148.033L122.925 133.527Z" fill="url(#paint4_linear_134_1139)"/>
<path d="M117.704 145.567L132.281 148.752L132.226 146.253L118.687 143.297L117.704 145.567Z" fill="#776A98"/>
<path d="M119.268 141.955L132.196 144.703L132.182 144.112L119.592 141.207L119.268 141.955Z" fill="#776A98"/>
<path style="mix-blend-mode:color-dodge" d="M123.098 134.094L125.371 134.51L119.971 148.131L117.448 147.67L123.098 134.094Z" fill="url(#paint5_linear_134_1139)"/>
<path style="mix-blend-mode:color-dodge" d="M125.684 134.725L127.265 134.96L122.82 147.721L121.144 147.311L125.684 134.725Z" fill="url(#paint6_linear_134_1139)"/>
<g style="mix-blend-mode:multiply" opacity="0.26">
<path d="M128.469 134.752L126.138 149.056L124.386 149.65L132.337 151.306L132.002 135.534L128.469 134.752Z" fill="#A21800"/>
</g>
<path d="M112.335 144.096C111.225 143.543 109.262 139.849 108.139 135.903L108.781 134.196C112.43 132.926 118.22 132.148 119.022 132.612L112.335 144.096Z" fill="url(#paint7_linear_134_1139)"/>
<path d="M110.038 133.943L107.819 134.421L104.887 146.899L112.209 157.14L112.698 157.034L106.293 146.196L110.038 133.943Z" fill="#221638"/>
<path d="M118.014 156.317L111.958 155.777L111.333 155.914L108.343 158.403L118.014 156.317Z" fill="#221638"/>
<path d="M106.949 146.707C107.113 147.472 106.765 148.199 106.167 148.325C105.57 148.451 104.955 147.939 104.802 147.171C104.648 146.403 104.986 145.683 105.583 145.553C106.181 145.423 106.782 145.942 106.949 146.707Z" fill="url(#paint8_linear_134_1139)"/>
<path d="M106.631 146.775C106.798 147.54 106.45 148.267 105.852 148.393C105.255 148.52 104.64 148.008 104.487 147.24C104.333 146.471 104.671 145.751 105.268 145.621C105.866 145.492 106.467 146.011 106.631 146.775Z" fill="url(#paint9_linear_134_1139)"/>
<path d="M106.128 146.884C106.124 146.998 106.089 147.109 106.025 147.203C105.962 147.298 105.873 147.372 105.769 147.419C105.665 147.465 105.55 147.482 105.437 147.466C105.324 147.45 105.218 147.403 105.131 147.33C105.043 147.257 104.978 147.161 104.943 147.052C104.908 146.944 104.904 146.828 104.931 146.718C104.958 146.607 105.016 146.506 105.098 146.427C105.18 146.348 105.283 146.293 105.394 146.27C105.573 146.255 105.75 146.312 105.887 146.427C106.024 146.542 106.111 146.706 106.128 146.884Z" fill="#221638"/>
<path d="M117.624 139.486C115.756 142.651 113.394 144.699 112.336 144.095C111.503 143.607 111.721 141.603 112.756 139.227C113.056 138.543 113.398 137.879 113.78 137.237C113.985 136.895 114.2 136.554 114.415 136.213C116.142 133.639 118.112 132.072 119.051 132.621C120.102 133.249 119.457 136.318 117.624 139.486Z" fill="#221638"/>
<path d="M117.281 139.269C115.652 142.062 113.57 143.882 112.631 143.335C111.911 142.909 112.088 141.191 112.973 139.143C112.983 139.109 112.997 139.076 113.014 139.044C113.275 138.441 113.574 137.855 113.908 137.289C114.085 136.979 114.273 136.675 114.468 136.392L114.499 136.347C116.014 134.101 117.735 132.742 118.554 133.224C119.483 133.777 118.916 136.477 117.281 139.269Z" fill="url(#paint10_linear_134_1139)"/>
<path d="M115.087 137.278C115.132 137.485 115.135 137.7 115.097 137.909C115.059 138.118 114.979 138.318 114.864 138.496C114.749 138.675 114.599 138.829 114.424 138.949C114.249 139.07 114.052 139.155 113.845 139.2C113.553 139.267 113.248 139.247 112.967 139.142C112.978 139.107 112.992 139.074 113.008 139.043C113.27 138.44 113.568 137.854 113.903 137.288C114.08 136.977 114.268 136.673 114.463 136.39L114.493 136.346C114.795 136.576 115.006 136.907 115.087 137.278Z" fill="white"/>
<path style="mix-blend-mode:color-dodge" opacity="0.73" d="M113.415 135.763C114.242 134.844 115.156 134.008 116.146 133.268C116.146 133.268 113.883 133.166 109.916 134.326L109.172 135.726C109.172 135.726 111.671 135.641 113.415 135.763Z" fill="url(#paint11_linear_134_1139)"/>
<path d="M138.595 139.096L160.525 151.198L146.187 159.152L122.864 150.18L138.595 139.096Z" fill="#D57C23"/>
<path d="M139.602 178.671L146.187 159.151L122.864 150.18L120.877 178.9L139.602 178.671Z" fill="#DD954D"/>
<path d="M120.876 178.9L97.3689 178.313L92.3438 154.413L122.863 150.18L120.876 178.9Z" fill="#F4C575"/>
<path d="M122.864 150.18L139.103 139.376L138.594 139.096L121.969 150.303L122.864 150.18Z" fill="#F4C575"/>
<g style="mix-blend-mode:multiply" opacity="0.53">
<path d="M140.718 175.36L122.864 150.18L146.187 159.151L140.718 175.36Z" fill="#D57C23"/>
</g>
<g style="mix-blend-mode:soft-light">
<path d="M98.8325 153.992L101.171 177.595L97.8152 177.865L93.5923 155.027L98.8325 153.992Z" fill="white"/>
</g>
<g style="mix-blend-mode:multiply" opacity="0.53">
<path d="M121.939 150.852L120.311 177.865L103.293 177.684L118.109 176.919L117.522 151.777L121.939 150.852Z" fill="#D57C23"/>
</g>
<path d="M78.6102 178.86L75.6641 152.648L92.1972 153.625V180.451L78.6102 178.86Z" fill="#E17C4A"/>
<path d="M92.1973 153.624L110.69 153.303L106.703 179.487L92.1973 180.449V153.624Z" fill="#BB472A"/>
<path d="M79.8418 153.152L99.9014 152.842L111.556 153.289L92.1964 153.624L79.8418 153.152Z" fill="#FFF6D6"/>
<path opacity="0.5" d="M84.8946 179.596L83.3584 153.289L85.8505 153.381V179.709L84.8946 179.596Z" fill="#FFF6D6"/>
<g style="mix-blend-mode:multiply" opacity="0.56">
<path d="M77.7559 171.25L92.1963 179.119L107.019 175.756L106.702 179.488L92.1963 180.45L78.6093 178.859L77.7559 171.25Z" fill="#AA3128"/>
</g>
<path d="M84.7201 150.732L84.6655 153.088L97.0406 153.16L97.4844 150.746L84.7201 150.732Z" fill="url(#paint12_linear_134_1139)"/>
<path d="M102.421 152.388L97.4847 150.746L97.3652 151.299L102.288 152.637L102.421 152.388Z" fill="#273600"/>
<path d="M97.0356 152.85L102.409 152.976L102.406 153.191L98.507 153.116L97.0425 153.16L97.0356 152.85Z" fill="#273600"/>
<path d="M102.068 152.576L102.061 152.968L97.0356 152.849L97.3668 151.299L102.068 152.576Z" fill="#D6CACA"/>
<path opacity="0.5" d="M102.061 152.818L97.971 151.93L97.8618 152.323L100.804 152.787L97.9574 152.535L97.8481 152.903L97.0356 152.849L97.3668 151.299L102.068 152.576L102.061 152.818Z" fill="#AE8E95"/>
<path d="M86.0414 150.732L85.9868 153.095L87.127 153.088L87.0792 150.736L86.0414 150.732Z" fill="#FFF493"/>
<path d="M95.306 150.742L95.2514 153.149L94.3604 153.142L94.4184 150.742H95.306Z" fill="#FFF493"/>
<path style="mix-blend-mode:color-dodge" opacity="0.48" d="M85.0415 151.012L88.1412 151.025L89.0561 152.698L85.1064 152.35L85.0415 151.012Z" fill="url(#paint13_linear_134_1139)"/>
<path style="mix-blend-mode:color-dodge" opacity="0.48" d="M88.3208 151.07L89.6897 151.104L90.5261 152.62L89.2425 152.569L88.3208 151.07Z" fill="url(#paint14_linear_134_1139)"/>
<path opacity="0.5" d="M84.6792 152.484L94.0535 152.2L95.8253 150.746H97.4844L97.0406 153.16L84.6655 153.088L84.6792 152.484Z" fill="#273600"/>
<path d="M96.2593 174.247L109.539 173.547L117.602 173.875L116.657 176.875L96.2593 177.271V176.906L109.044 176.199L109.361 173.994L96.2593 174.714V174.247Z" fill="url(#paint15_linear_134_1139)"/>
<path d="M109.045 176.199L109.363 173.994L96.7349 174.714V176.906L109.045 176.199Z" fill="white"/>
<g style="mix-blend-mode:multiply" opacity="0.26">
<path d="M96.8031 175.206L106.314 174.714V175.097L102.026 175.571L109.171 175.322L109.363 173.994L96.7349 174.714L96.8031 175.206Z" fill="#A21800"/>
</g>
<path d="M110.81 173.602L110.284 176.875H111.23L111.991 173.649L110.81 173.602Z" fill="#776A98"/>
<path d="M115.884 173.807L114.962 176.876H115.57L116.672 173.837L115.884 173.807Z" fill="#776A98"/>
<path d="M97.0093 177.175L111.194 176.428L119.807 176.779L118.796 179.982H97.0093V179.261H110.665L111.002 176.906L97.0093 177.674V177.175Z" fill="url(#paint16_linear_134_1139)"/>
<path d="M110.666 179.262L111.004 176.906L97.5156 177.674L97.7375 179.262H110.666Z" fill="white"/>
<g style="mix-blend-mode:multiply" opacity="0.26">
<path d="M97.5907 178.203L107.747 177.674V178.084L103.165 178.593L110.799 178.323L111.004 176.906L97.5156 177.674L97.5907 178.203Z" fill="#A21800"/>
</g>
<path d="M112.551 176.486L111.988 179.982H112.998L113.814 176.538L112.551 176.486Z" fill="url(#paint17_linear_134_1139)"/>
<path d="M117.971 176.705L116.984 179.982H117.633L118.811 176.739L117.971 176.705Z" fill="url(#paint18_linear_134_1139)"/>
<path d="M88.2646 133.776L87.0595 133.127C87.0595 133.127 90.5757 126.597 93.8461 128.307C96.6489 129.772 94.4948 133.769 93.3716 135.841C92.2485 137.914 66.481 179.92 66.481 179.92L65.7334 179.521C65.7334 179.521 92.2928 136.579 93.3033 134.701C94.5767 132.339 94.7713 129.717 93.4535 129.007C91.4121 127.908 88.2646 133.776 88.2646 133.776Z" fill="#42012F"/>
<path d="M67.1948 176.789C67.1948 176.789 79.9659 148.417 80.9525 146.587C81.9391 144.757 87.3363 141.033 87.3363 141.033L89.9069 134.639C89.9069 134.639 89.6543 137.94 90.6887 137.629C91.7231 137.319 94.3278 136.359 94.3278 136.359L93.191 138.974C93.191 138.974 93.3207 138.203 94.717 137.786L96.1166 137.38L90.3132 142.842C90.3132 142.842 89.3197 149.451 88.4356 151.093C87.5514 152.735 68.0824 177.281 68.0824 177.281L67.1948 176.789Z" fill="#8B9F1B"/>
<path opacity="0.5" d="M90.689 137.643L88.8353 141.429C88.8353 141.429 86.4695 146.209 86.0223 148.349C85.5751 150.49 79.9696 157.881 79.9696 157.881C79.9696 157.881 86.4558 151.667 86.8826 149.414C87.3592 147.39 87.9426 145.392 88.6304 143.43C88.6304 143.43 88.2891 149.698 87.5312 151.131C86.7733 152.565 70.2402 173.765 70.2402 173.765C70.2402 173.765 88.0535 152.053 88.429 151.108C88.8045 150.162 89.5522 142.675 89.5522 142.675L94.888 137.896L93.42 138.538L94.3281 136.377L90.4124 140.542L91.7507 137.295L90.689 137.643Z" fill="#273600"/>
<path style="mix-blend-mode:color-dodge" d="M81.6515 145.912L85.2565 146.281L69.2116 174.376L68.563 173.765L81.6515 145.912Z" fill="url(#paint19_linear_134_1139)"/>
<path d="M225.822 168.899C225.494 172.41 226.278 174.989 228.302 178.469L228.901 178.445C227.26 174.429 227.397 171.964 228.052 167.461L225.822 168.899Z" fill="#42665F"/>
<path d="M207.076 174.72C207.061 176.754 208.152 178.411 209.515 178.42C210.876 178.428 211.994 176.787 212.009 174.753C212.025 172.719 210.933 171.063 209.572 171.053C208.209 171.044 207.092 172.685 207.076 174.72Z" fill="#847063"/>
<path d="M207.288 176.239C207.589 174.687 208.55 173.553 209.683 173.56C210.682 173.567 211.533 174.462 211.91 175.741C211.972 175.427 212.008 175.096 212.011 174.753C212.027 172.719 210.935 171.063 209.574 171.053C208.211 171.044 207.094 172.685 207.078 174.72C207.074 175.261 207.151 175.774 207.288 176.239Z" fill="#604C40"/>
<path d="M209.71 173.585C208.647 173.408 207.993 170.964 207.562 169.049L206.722 169.062C207.107 170.158 207.785 175.427 209.363 175.689C211.271 176.005 214.699 168.943 214.699 168.943L213.919 168.955C212.748 171.007 210.923 173.786 209.71 173.585Z" fill="#34564F"/>
<path d="M202.835 140.576H196.73V142.32H202.835V140.576Z" fill="#34564F"/>
<path d="M206.488 167.038C189.1 168.699 202.072 99.9182 193.344 103.531L193.161 102.08C203.912 98.271 188.228 168.263 208.067 166.193L206.488 167.038Z" fill="#34564F"/>
<path d="M205.371 169.361C208.104 171.719 226.325 169.724 227.783 168.817C229.241 167.91 233.068 120.576 231.792 119.307C230.516 118.038 203.549 117.493 202.273 119.851C200.997 122.208 202.637 167.004 205.371 169.361Z" fill="#5A9187"/>
<path d="M211.189 136.659C213.066 149.253 220.384 159.142 229.047 162.147C230.709 148.857 232.777 120.289 231.79 119.307C231.024 118.545 221.01 118.045 212.844 118.275C210.882 123.611 210.195 129.995 211.189 136.659Z" fill="#6AADA0"/>
<path d="M232.046 122.754L203.923 126.078L204.686 120.192L232.101 119.92L232.046 122.754Z" fill="#4A7C72"/>
<path d="M208.939 165.756C203.955 162.603 204.034 131.965 205.467 118.803C203.703 119.057 202.517 119.401 202.273 119.852C200.997 122.209 202.637 167.005 205.371 169.362C208.104 171.72 226.325 169.725 227.783 168.818C228.02 168.67 228.321 167.287 228.651 165.077C223.437 167.064 212.574 168.055 208.939 165.756Z" fill="#4A7C72"/>
<path d="M210.678 174.65C210.618 173.908 210.131 173.341 209.591 173.385C209.051 173.428 208.662 174.066 208.723 174.809C208.784 175.552 209.27 176.118 209.811 176.074C210.35 176.03 210.739 175.392 210.678 174.65Z" fill="#EACEBB"/>
<path d="M231.31 117.814C231.044 116.608 229.943 115.773 228.711 115.842L204.851 117.167C202.931 117.274 202.289 118.939 202.126 120.41H231.884L231.31 117.814Z" fill="#87C6BA"/>
<path d="M235.97 119.02C236.125 119.739 234.254 120.655 229.757 120.328L229.839 118.53C229.839 118.53 235.725 117.876 235.97 119.02Z" fill="#87C6BA"/>
<path d="M193.705 103.814C184.139 107.003 183.813 106.349 183.486 105.531C183.159 104.713 183.731 103.569 193.623 101.525L193.705 103.814Z" fill="#577F76"/>
<path d="M214.95 145.061C214.608 144.482 214.408 143.804 214.408 143.077C214.408 141.014 216.002 139.367 217.971 139.399C218.618 139.409 219.224 139.602 219.746 139.926L221.535 138.01C220.415 136.97 218.956 136.323 217.355 136.298C213.834 136.241 210.98 139.187 210.98 142.878C210.98 144.643 211.638 146.254 212.704 147.466L214.95 145.061Z" fill="#CAEF97"/>
<path d="M221.333 141.958C221.462 142.346 221.535 142.76 221.535 143.192C221.535 145.255 219.939 146.902 217.971 146.87C217.604 146.864 217.25 146.8 216.917 146.688L214.733 149.025C215.533 149.417 216.419 149.648 217.354 149.663C220.875 149.719 223.728 146.773 223.728 143.082C223.728 142.016 223.484 141.008 223.061 140.107L221.333 141.958Z" fill="#CAEF97"/>
<path d="M220.709 143.123L221.133 139.922H224.487L220.709 143.123Z" fill="#CAEF97"/>
<path d="M215.531 143.574L215.202 147.449L211.154 147.639L215.531 143.574Z" fill="#CAEF97"/>
<path d="M231.473 118.367L208.583 118.449L230.738 116.568C231.383 117.27 231.472 117.736 231.473 118.367Z" fill="#B5EAE0"/>
<path d="M205.886 120.777C205.886 119.807 205.264 119.02 204.496 119.02C203.728 119.02 203.106 119.806 203.106 120.777C203.106 121.748 203.728 122.535 204.496 122.535C205.264 122.535 205.886 121.748 205.886 120.777Z" fill="#34564F"/>
<path d="M205.277 120.779C205.277 120.233 204.927 119.791 204.496 119.791C204.065 119.791 203.716 120.233 203.716 120.779C203.716 121.323 204.065 121.765 204.496 121.765C204.927 121.765 205.277 121.323 205.277 120.779Z" fill="#87C6BA"/>
<path d="M186.839 65.6753C185.884 64.6587 181.566 64.7233 181.563 66.2316C181.56 67.7389 183.817 68.4929 184.415 68.2927C185.013 68.0931 188.012 66.9199 186.839 65.6753Z" fill="#DBE557"/>
<path d="M196.429 66.0421C197.317 64.9322 201.843 64.5436 202.013 66.0421C202.183 67.5405 199.902 68.5269 199.255 68.3914C198.608 68.2555 195.34 67.4041 196.429 66.0421Z" fill="#DBE557"/>
<path d="M195.274 56.9127L183.138 54.5332L187.578 65.9183L195.347 64.8571L195.274 56.9127Z" fill="#F8BA95"/>
<path opacity="0.4" d="M195.274 56.9127L183.138 54.5332L187.578 65.9183L195.347 64.8571L195.274 56.9127Z" fill="url(#paint20_linear_134_1139)"/>
<path d="M191.903 177.439C191.869 175.396 190.616 175.825 190.507 175.057C190.437 174.563 191.256 174.485 191.188 174.001C191.101 173.396 190.225 173.201 190.201 172.605C189.452 153.675 185 139.943 182.503 106.251C189.882 101.253 198.766 99.9841 206.698 106.964C208.552 120.257 203.003 149.166 201.742 172.809C201.714 173.339 202.277 173.56 202.253 174.086C202.229 174.598 201.619 174.906 201.6 175.414C201.575 176.082 201.554 176.746 201.538 177.405L197.963 177.916C197.963 177.916 197.982 177.187 197.963 175.311C197.96 175.038 197.404 174.801 197.401 174.494C197.399 174.249 197.864 173.788 197.861 173.524C197.711 159.704 197.228 119.315 195.989 120.212C193.697 121.867 194.775 157.719 195.29 171.839C195.304 172.212 195.908 172.723 195.92 173.064C195.933 173.401 195.355 173.569 195.367 173.872C195.454 176.142 195.512 177.481 195.512 177.481L191.903 177.439Z" fill="#344C60"/>
<path opacity="0.4" d="M191.903 177.439C191.791 176.646 191.791 176.437 191.681 175.669C191.612 175.176 190.78 175.131 190.711 174.647C190.625 174.043 191.203 173.093 191.12 172.502C187.638 148.093 185 139.943 182.503 106.251C189.882 101.253 198.766 99.9841 206.698 106.964C208.552 120.257 203.003 149.166 201.742 172.809C201.714 173.339 202.277 173.56 202.253 174.086C202.229 174.598 201.619 174.906 201.6 175.414C201.575 176.082 201.554 176.746 201.538 177.405L197.963 177.916C197.963 177.916 197.982 177.187 197.963 175.311C197.96 175.038 197.404 174.801 197.401 174.494C197.399 174.249 197.864 173.788 197.861 173.524C197.711 159.704 197.228 119.315 195.989 120.212C193.697 121.867 194.775 157.719 195.29 171.839C195.304 172.212 195.908 172.723 195.92 173.064C195.933 173.401 195.355 173.569 195.367 173.872C195.454 176.142 195.512 177.481 195.512 177.481L191.903 177.439Z" fill="url(#paint21_linear_134_1139)"/>
<path opacity="0.2" d="M194.593 142.497C191.667 142.327 188.848 141.863 186.185 141.139C187.662 151.178 189.271 159.552 191.118 172.502C191.202 173.093 190.623 174.043 190.71 174.647C190.778 175.131 191.611 175.176 191.68 175.669C191.789 176.437 191.789 176.646 191.901 177.439L195.511 177.482C195.511 177.482 195.453 176.142 195.366 173.873C195.354 173.568 195.932 173.401 195.919 173.064C195.907 172.723 195.303 172.212 195.29 171.839C195.04 165.024 194.662 153.148 194.593 142.497Z" fill="#2E404C"/>
<path opacity="0.2" d="M204.722 141.875C202.357 142.311 199.895 142.553 197.364 142.569C197.639 153.99 197.789 166.852 197.861 173.522C197.864 173.786 197.399 174.248 197.401 174.493C197.404 174.799 197.961 175.037 197.963 175.31C197.982 177.185 197.963 177.914 197.963 177.914L201.538 177.403C201.554 176.744 201.575 176.08 201.6 175.412C201.619 174.904 202.23 174.596 202.253 174.084C202.277 173.558 201.714 173.338 201.742 172.807C202.27 162.908 203.549 152.088 204.722 141.875Z" fill="#2E404C"/>
<path opacity="0.3" d="M206.971 109.823C206.909 108.807 206.822 107.848 206.698 106.963C204.847 105.333 202.944 104.159 201.02 103.371C198.955 103.057 196.626 102.877 194.151 102.877C192.139 102.877 190.223 102.997 188.465 103.208C186.407 103.924 184.405 104.961 182.503 106.249C182.61 107.688 182.718 109.064 182.825 110.413C185.605 111.344 189.642 111.933 194.151 111.933C199.55 111.933 204.278 111.089 206.971 109.823Z" fill="#2E404C"/>
<path d="M206.856 107.638C208.534 107.134 209.327 106.063 207.257 104.631C204.852 102.968 210.663 71.469 202.453 68.1369C197.06 65.9487 182.226 64.4087 177.943 70.754C173.901 76.7401 185.872 93.0757 182.226 104.663C181.545 106.831 181.394 107.638 183.297 107.638C191.626 108.691 198.077 108.667 206.856 107.638Z" fill="#344C60"/>
<path opacity="0.3" d="M197.501 67.965C197.501 66.78 194.814 65.8203 191.5 65.8203C188.187 65.8203 185.5 66.78 185.5 67.965C185.5 69.15 188.187 70.11 191.5 70.11C194.814 70.1097 197.501 69.15 197.501 67.965Z" fill="#2E404C"/>
<path d="M185.399 66.3745C184.778 64.9797 184.388 63.4906 185.047 63.3415C186.213 63.0784 190.361 64.4267 191.743 64.1506C193.528 63.7947 197.539 62.5561 197.944 63.1738C198.452 63.9542 197.916 65.412 197.272 66.6506C195.622 69.8127 186.975 69.9109 185.399 66.3745Z" fill="#344C60"/>
<path opacity="0.3" d="M206.735 103.073C206.07 97.3615 208.751 78.0507 204.972 70.7144L200.119 67.3878C199.966 67.3471 199.806 67.3078 199.645 67.2695C197.294 75.1429 189.169 102.685 206.735 103.073Z" fill="#2E404C"/>
<path opacity="0.3" d="M183.889 67.0391C183.84 67.0525 183.791 67.0638 183.742 67.0773L177.738 71.1148C174.388 77.3148 185.6 93.0264 182.302 104.373C196.689 100.26 187.775 74.112 183.889 67.0391Z" fill="#2E404C"/>
<path d="M168.17 101.201C171.802 100.066 177.225 94.1551 179.426 86.6552L177.109 70.5176C177.109 70.5176 162.684 86.4269 168.17 101.201Z" fill="#344C60"/>
<path opacity="0.3" d="M177.109 70.5176C177.109 70.5176 176.131 71.5989 174.787 73.4485C178.249 85.8907 170.894 96.1092 168.852 97.3299C169.005 99.052 167.532 99.4821 168.17 101.201C171.803 100.065 177.225 94.1548 179.427 86.6549L177.109 70.5176Z" fill="#2E404C"/>
<path d="M216.529 87.935C214.139 90.3957 208.679 89.7415 203.802 85.0289L200.074 67.543C200.074 67.543 215.488 73.5018 216.529 87.935Z" fill="#344C60"/>
<path opacity="0.3" d="M207.052 71.7959C205.482 71.5341 203.408 78.8672 202.286 77.9217L203.801 85.029C208.677 89.7416 214.137 90.3958 216.528 87.9351C216.411 86.3154 216.105 84.8071 215.668 83.3974C209.095 83.6436 208.278 72 207.052 71.7959Z" fill="#2E404C"/>
<path d="M179.686 100.569C179.728 100.864 179.892 101.129 180.139 101.298C180.385 101.468 180.69 101.528 180.982 101.462C183.373 100.922 188.356 99.2354 188.402 93.2322C188.466 85.039 186.842 76.2507 184.545 67.5418C184.446 67.1667 184.181 66.8571 183.826 66.7023C183.472 66.5474 183.064 66.5617 182.722 66.7424L176.06 70.2778C175.654 70.4928 175.428 70.9391 175.493 71.3931L179.686 100.569Z" fill="#AEBF34"/>
<path d="M198.167 92.0163C198.955 97.9449 204.188 98.5224 207.097 98.7685C207.357 98.7902 207.614 98.702 207.805 98.5251C207.997 98.348 208.105 98.0986 208.104 97.8379L207.989 71.1504C207.987 70.6153 207.686 70.1266 207.209 69.8841L201.584 67.0255C201.091 66.7747 200.508 66.7755 200.015 67.0271C199.522 67.279 199.18 67.7515 199.094 68.2982C197.746 76.8772 197.213 84.8408 198.167 92.0163Z" fill="#AEBF34"/>
<path d="M197.15 108.992L193.223 109.004L193.229 110.908L197.156 110.896L197.15 108.992Z" fill="#597689"/>
<path d="M214.111 78.6077C212.836 78.7768 211.256 89.9098 212.921 90.2672C214.587 90.6247 217.442 90.5051 217.918 89.4343C218.394 88.3632 215.896 78.3698 214.111 78.6077Z" fill="#638DAA"/>
<path d="M216.897 83.6387C216.247 84.6298 215.254 85.2776 214.126 85.2776C213.487 85.2776 212.896 85.0574 212.378 84.6999C212.074 87.4361 212.124 90.0964 212.924 90.268C214.591 90.6255 217.445 90.5059 217.922 89.435C218.156 88.9068 217.667 86.2096 216.897 83.6387Z" fill="#41697F"/>
<path d="M216.548 88.9211C218.48 90.1196 228.387 80.1548 229.696 70.993L228.387 70.5176C223.033 78.133 218.631 75.0385 214.705 80.6305C214.705 80.6305 213.356 86.9414 216.548 88.9211Z" fill="#F8BA95"/>
<path d="M228.939 70.7168C226.456 78.3138 217.638 85.5259 214.684 85.9975C214.965 87.1846 215.518 88.2802 216.552 88.921C218.483 90.1194 228.39 80.1547 229.699 70.9929L228.939 70.7168Z" fill="#ED8C6B"/>
<path d="M174.943 100.973C175.532 98.3362 167.947 92.8574 166.58 93.8972C165.213 94.9369 163.419 97.152 163.911 98.1415C164.403 99.1317 174.564 102.67 174.943 100.973Z" fill="#638DAA"/>
<path d="M164.649 95.9004C164.032 96.754 163.65 97.6191 163.91 98.1424C164.403 99.1327 174.564 102.671 174.943 100.974C175.116 100.199 174.58 99.1783 173.706 98.1496C170.487 97.3804 166.963 96.3079 164.649 95.9004Z" fill="#41697F"/>
<path d="M166.486 97.6056C164.212 97.789 163.66 111.38 168.931 118.376L170.216 117.795C168.97 109.059 174.309 108.101 173.389 101.69C173.389 101.69 170.117 97.316 166.486 97.6056Z" fill="#F8BA95"/>
<path d="M173.391 101.689C173.391 101.689 172.355 100.306 170.803 99.1465C171.496 104.652 167.282 110.944 169.426 118.153L170.217 117.795C168.971 109.059 174.311 108.101 173.391 101.689Z" fill="#ED8C6B"/>
<path d="M195.572 179.105C195.572 179.105 196.374 176.326 193.527 175.934C190.94 175.576 184.4 179.105 184.4 179.105H195.572Z" fill="#ACCCE2"/>
<path d="M197.636 179.105C197.636 179.105 196.965 176.326 199.345 175.934C201.508 175.576 206.976 179.105 206.976 179.105H197.636Z" fill="#ACCCE2"/>
<path d="M169.05 119.655C167.623 118.228 163.22 114.658 157.271 117.632C157.271 117.632 155.606 121.678 159.651 123.105C162.372 119.227 164.52 118.636 169.05 119.655Z" fill="#333E44"/>
<path d="M164.409 117.961C165.536 117.961 166.61 118.132 167.599 118.432C165.504 116.929 161.849 115.344 157.271 117.633C157.271 117.633 156.581 119.329 157.188 120.913C158.76 119.132 161.406 117.961 164.409 117.961Z" fill="#212B30"/>
<path d="M228.142 70.8768C228.321 69.6255 231.436 68.7574 231.64 69.268C231.845 69.7787 231.794 71.7447 231.027 71.847C230.261 71.949 228.025 71.6921 228.142 70.8768Z" fill="#F8BA95"/>
<path d="M228.273 70.8921C228.422 69.8372 231.05 69.1054 231.222 69.5355C231.393 69.9664 231.413 71.5966 230.782 71.761C229.54 72.0842 228.174 71.579 228.273 70.8921Z" fill="#ED8C6B"/>
<path d="M228.017 71.182C228.17 70.3139 228.45 69.8541 228.348 69.2414C228.253 68.6716 227.611 67.5488 227.94 67.3016C228.451 66.9185 229.872 69.0459 229.898 69.8373C230.086 70.689 229.013 72.1869 228.017 71.182Z" fill="#F8BA95"/>
<path d="M229.931 69.4718C229.913 69.2171 231.08 68.6036 231.59 68.9099C232.101 69.2163 231.871 69.5994 231.54 69.7014C231.208 69.8037 229.957 69.8293 229.931 69.4718Z" fill="#F8BA95"/>
<path d="M230.03 70.4932C230.012 70.2389 231.18 69.6251 231.69 69.9314C232.201 70.2378 231.971 70.6208 231.639 70.7228C231.307 70.8254 230.056 70.8507 230.03 70.4932Z" fill="#F8BA95"/>
<path d="M229.811 71.319C229.81 71.1202 230.989 70.7206 231.466 70.9918C231.944 71.2613 231.695 71.544 231.364 71.6014C231.034 71.6589 229.812 71.5973 229.811 71.319Z" fill="#F8BA95"/>
<path d="M169.09 117.247C168.478 118.405 167.458 121.711 169.771 121.605C171.277 121.537 170.716 120.796 170.409 120.541C172.222 120.745 169.975 117.017 169.975 117.179C169.975 117.383 169.09 117.247 169.09 117.247Z" fill="#F8BA95"/>
<path d="M170.063 117.092C169.875 116.973 169.416 117.041 169.194 117.194C169.548 117.887 169.842 118.982 169.842 120.138C169.842 120.657 169.796 121.151 169.715 121.6C169.736 121.6 169.751 121.604 169.773 121.603C171.279 121.535 170.718 120.794 170.411 120.539C172.224 120.743 170.199 117.179 170.063 117.092Z" fill="#ED8C6B"/>
<path d="M170.214 120.132C170.214 119.863 170.001 119.646 169.738 119.646C169.475 119.646 169.184 120.068 169.184 120.336C169.184 120.604 169.475 120.617 169.738 120.617C170.001 120.617 170.214 120.4 170.214 120.132Z" fill="#ED8C6B"/>
<path d="M179.879 132.266C179.5 128.249 172.356 125.46 169.977 120.105C169.798 119.978 169.484 120.068 169.415 120.233C167.351 125.214 160.561 127.633 160.128 132.266L155.726 164.738C155.1 171.399 185.135 172.745 184.281 163.603L179.879 132.266Z" fill="#333E44"/>
<path d="M169.978 120.105C169.799 119.978 169.485 120.068 169.416 120.233C167.351 125.214 160.561 127.633 160.128 132.266L159.43 137.416C159.43 137.416 158.836 138.069 158.743 138.592C158.649 139.116 159.042 140.277 159.042 140.277L157.739 149.897C158.218 150.147 158.716 150.37 159.235 150.558C167.231 153.466 176.713 147.624 180.612 137.479L179.879 132.266C179.501 128.249 172.357 125.459 169.978 120.105Z" fill="#4A5F68"/>
<path d="M165.585 168.417C162.005 168.417 158.648 167.219 155.745 165.133C156.322 171.446 185.117 172.562 184.28 163.604L183.107 155.246C179.737 163.09 173.154 168.417 165.585 168.417Z" fill="#212B30"/>
<path d="M189.343 160.825H194.934C194.911 159.979 194.888 159.115 194.865 158.238H188.925C189.064 159.084 189.203 159.948 189.343 160.825Z" fill="#97B9CC"/>
<path d="M188.445 155.309H194.794C194.768 154.208 194.744 153.094 194.723 151.973H187.895C188.076 153.073 188.259 154.182 188.445 155.309Z" fill="#97B9CC"/>
<path d="M202.961 157.76H197.657C197.671 158.634 197.684 159.498 197.697 160.347H202.706C202.788 159.486 202.874 158.624 202.961 157.76Z" fill="#97B9CC"/>
<path d="M203.628 151.496H197.552C197.572 152.615 197.591 153.73 197.611 154.832H203.266C203.384 153.72 203.505 152.608 203.628 151.496Z" fill="#97B9CC"/>
<path d="M169.672 123.579C170.728 123.579 171.756 123.717 172.749 123.976C171.628 122.823 170.625 121.561 169.978 120.105C169.8 119.978 169.485 120.068 169.416 120.233C168.837 121.631 167.881 122.823 166.801 123.923C167.73 123.699 168.689 123.579 169.672 123.579Z" fill="#333E44"/>
<path d="M170.028 122.557C170.692 123.782 173.654 127 173.858 126.745C174.062 126.489 170.845 122.506 170.845 122.506L170.028 122.557Z" fill="#333E44"/>
<path d="M168.59 122.549C167.915 123.07 166.694 125.523 166.989 125.721C167.284 125.918 169.567 122.556 169.567 122.556L168.59 122.549Z" fill="#333E44"/>
<path d="M169.005 122.915C168.728 123.722 169.571 124.701 169.925 124.702C170.28 124.706 170.435 122.711 170.435 122.711L169.005 122.915Z" fill="#333E44"/>
<path d="M178.266 140.771C176.291 142.609 173.547 145.915 168.324 146.151C167.523 146.187 166.825 146.558 166.674 147.035C166.542 147.449 166.824 147.985 167.78 147.921C170.793 147.717 174.742 146.253 178.47 141.112C178.814 140.638 178.266 140.771 178.266 140.771Z" fill="#333E44"/>
<path d="M203.07 110.164L204.432 109.279L206.952 111.935L207.019 113.773L203.07 110.164Z" fill="#344C60"/>
<path d="M186.794 110.369L185.574 109.484L183.314 112.14L183.253 113.978L186.794 110.369Z" fill="#344C60"/>
<path d="M188.098 86.4902L178.074 89.3565L178.631 93.232L188.353 90.4043C188.305 89.1118 188.217 87.8055 188.098 86.4902Z" fill="#DBE557"/>
<path d="M208.059 87.3972L197.706 85.3105C197.727 86.636 197.773 87.9461 197.874 89.2259L208.076 91.2824L208.059 87.3972Z" fill="#DBE557"/>
<path d="M166.813 100.155C169.591 100.155 172.015 101.988 173.348 104.718C173.517 103.834 173.56 102.854 173.393 101.69C173.393 101.69 170.121 97.316 166.49 97.6056C165.862 97.6567 165.367 98.7325 165.088 100.406C165.643 100.247 166.219 100.155 166.813 100.155Z" fill="#ED8C6B"/>
<path d="M214.785 80.5215C214.758 80.5589 214.731 80.5916 214.705 80.6301C214.705 80.6301 213.356 86.941 216.548 88.9207C217.269 89.3684 219.102 88.2585 221.184 86.2172C218.142 85.2445 215.761 83.1469 214.785 80.5215Z" fill="#ED8C6B"/>
<path d="M161.738 130.728C162.512 129.141 164.874 129.317 164.462 131.068C163.917 133.384 160.377 133.521 161.738 130.728Z" fill="#749BA8"/>
<path d="M164.827 132.855C165.549 132.115 166.218 132.599 165.555 133.487C164.681 134.662 163.557 134.155 164.827 132.855Z" fill="#749BA8"/>
<path d="M155.957 165.52C156.115 166.427 154.514 167.044 154.514 167.044L154.039 164.781C154.039 164.781 155.842 164.864 155.957 165.52Z" fill="#212B30"/>
<path d="M184.007 165.087C184.478 164.297 186.095 164.872 186.095 164.872L184.981 166.898C184.981 166.898 183.668 165.66 184.007 165.087Z" fill="#212B30"/>
<path d="M183.826 66.7023C183.472 66.5475 183.064 66.5618 182.721 66.7422L176.06 70.2778C175.655 70.4923 175.428 70.9392 175.493 71.3932L175.736 73.0866C178.834 73.7705 182.383 74.2834 186.227 74.5762C185.726 72.2341 185.163 69.8851 184.545 67.5416C184.446 67.1668 184.181 66.8571 183.826 66.7023Z" fill="#C2CC3B"/>
<path d="M207.208 69.8836L201.585 67.0253C201.091 66.7747 200.507 66.7756 200.015 67.0269C199.522 67.2791 199.18 67.7513 199.093 68.2979C198.749 70.4938 198.459 72.6484 198.232 74.7606C201.717 74.6083 205.008 74.278 208.001 73.8031L207.989 71.1499C207.987 70.6153 207.686 70.1261 207.208 69.8836Z" fill="#C2CC3B"/>
<path opacity="0.4" d="M204.763 68.6399L201.722 67.0941C201.937 66.7845 202.061 66.4303 202.017 66.0409C201.895 64.9637 199.525 64.8647 197.871 65.3053C198.165 64.4728 198.278 63.6806 197.948 63.174C197.745 62.8627 196.624 63.0233 195.336 63.3041L195.277 56.9132L191.525 56.1776C191.39 56.1759 191.258 56.168 191.121 56.168C188.599 56.168 186.217 56.4479 184.077 56.9341L186.611 63.4312C185.942 63.3225 185.378 63.2684 185.051 63.3418C184.61 63.4416 184.645 64.1486 184.9 65.0215C183.367 64.8897 181.569 65.2585 181.566 66.232C181.565 66.5925 181.697 66.9085 181.901 67.1799L178.235 69.1252C181.268 70.9388 185.911 72.1015 191.121 72.1015C196.786 72.1012 201.78 70.7296 204.763 68.6399Z" fill="#7A1E00"/>
<path d="M190.316 61.9492C192.854 62.5047 199.002 61.0379 201.699 58.6586C201.699 58.6586 199.621 55.9887 199.698 53.3842C198.957 51.5203 196.659 50.9076 198.549 48.4307C198.405 46.701 198.733 44.9262 199.082 43.2712C199.082 43.2712 186.231 38.5108 183.138 43.5872C177.979 52.0549 185.099 61.5007 190.316 61.9492Z" fill="#F8BA95"/>
<path d="M199.656 53.4434C199.656 53.4434 189.782 56.5553 186.867 54.7714C183.952 52.9872 181.926 49.7676 181.926 49.7676L180.599 52.0822C181.236 53.0909 185.228 63.0108 191.783 62.5447C195.747 62.2631 202.294 61.0383 202.413 59.8475C202.532 58.659 200.488 54.275 199.656 53.4434Z" fill="#60311F"/>
<path d="M182.371 55.1121C180.838 55.18 178.455 53.5457 177.842 50.9924C177.842 50.9924 179.603 47.9204 183.868 46.6348L182.371 55.1121Z" fill="#60311F"/>
<path d="M182.239 50.9316C180.018 51.4726 177.825 51.7789 179.658 54.5432C180.494 55.8024 182.9 56.1918 183.933 54.8751L182.239 50.9316Z" fill="#F8BA95"/>
<path d="M178.354 50.3463C176.866 48.3243 175.426 44.965 176.14 43.2988C176.854 41.6326 182.153 38.1401 184.176 37.5447C186.198 36.9494 192.748 37.4361 193.878 38.5661C195.008 39.696 194.304 44.9949 194.304 44.9949C194.304 44.9949 184.312 44.4903 178.354 50.3463Z" fill="#895946"/>
<path opacity="0.4" d="M194.472 51.3256C195.973 51.6759 197.434 51.9025 198.82 52.0255C197.99 51.0217 197.198 50.2022 198.55 48.4307C198.406 46.701 198.735 44.9262 199.083 43.2712C199.083 43.2712 186.232 38.5108 183.139 43.5872C183 43.8146 182.883 44.0437 182.762 44.2717C183.572 46.9361 188.312 49.8871 194.472 51.3256Z" fill="#7A1E00"/>
<path d="M194.303 44.9949C194.303 44.9949 195.007 39.6958 193.877 38.5661C192.747 37.4361 186.197 36.9494 184.175 37.5447C183.705 37.6828 183.053 37.9828 182.328 38.3747C182.001 39.7208 181.825 41.1516 181.825 42.6349C181.825 44.3264 182.065 45.9431 182.487 47.4498C188.049 44.6823 194.303 44.9949 194.303 44.9949Z" fill="#CE9A89"/>
<path d="M185.536 45.7852C182.522 47.0952 179.587 48.1413 177.808 49.9381L178.149 50.4824C179.953 48.9168 182.28 47.7214 185.162 46.397L185.536 45.7852Z" fill="#C6866F"/>
<path d="M184.687 46.533C189.998 44.9323 196.546 44.1543 198.747 47.0093C198.747 47.0093 205.726 44.2231 205.964 41.4269C206.203 38.631 199.983 37.2976 195.921 38.0557C188.902 39.3642 184.687 46.533 184.687 46.533Z" fill="#4C3327"/>
<path d="M182.031 52.091L183.13 53.9222L182.074 51.4629C180.603 51.8212 179.153 52.0495 179.668 53.4569C179.657 52.5673 180.837 52.374 182.031 52.091Z" fill="#ED8C6B"/>
<path d="M182.516 53.0792L183.205 54.1261L182.545 52.6562C181.555 52.8971 180.58 53.0511 180.926 53.9977C180.918 53.3993 181.712 53.27 182.516 53.0792Z" fill="#ED8C6B"/>
<path d="M188.692 51.2396C188.439 50.6395 188.655 49.6166 189.152 49.4777C189.79 49.2989 190.297 50.2229 190.403 50.7545C190.505 51.2652 190.199 51.5203 189.79 51.6994C189.382 51.8781 188.896 51.7247 188.692 51.2396Z" fill="#5B3C34"/>
<path d="M195.225 50.2451C195.01 49.7097 195.208 48.8025 195.646 48.6845C196.206 48.5321 196.642 49.3588 196.73 49.8318C196.814 50.2866 196.71 50.7296 196.173 50.7296C195.782 50.7294 195.399 50.6782 195.225 50.2451Z" fill="#5B3C34"/>
<path d="M195.958 53.7622C195.014 52.6477 192.898 48.3044 192.9 47.7871L192.873 49.2696C193.577 50.7667 194.608 52.8517 195.196 53.5466C195.886 54.3606 194.13 54.5017 192.781 54.489L192.776 54.7954C194.045 54.94 196.788 54.7431 195.958 53.7622Z" fill="#D86A4C"/>
<path d="M186.115 49.5302C188.286 48.7896 189.459 48.1258 191.502 48.0749C191.502 48.0749 191.707 46.7725 191.222 45.5469C191.222 45.5469 187.689 47.0704 185.672 48.3725C185.476 48.8287 185.833 49.2247 186.115 49.5302Z" fill="#60311F"/>
<path d="M194.287 48.0086C194.222 47.3302 194.195 46.3328 193.861 45.6211C195.402 45.9203 197.215 46.2803 198.188 47.3558C198.617 47.7179 198.645 48.0477 198.496 48.5223C196.993 47.8777 196.212 47.8241 194.287 48.0086Z" fill="#60311F"/>
<path d="M189.648 56.6465C189.789 56.4174 191.818 56.372 193.617 56.1685C195.327 55.9755 197.209 55.5949 197.463 55.7871C197.986 56.1837 196.54 59.2892 194.294 59.5334C192.048 59.7784 189.094 57.5416 189.648 56.6465Z" fill="#421D11"/>
<path d="M190.064 56.508L190.507 57.8356L196.465 57.2914L196.942 55.793L190.064 56.508Z" fill="#FFE5DE"/>
<path d="M183.937 178.596V179.346H196.022V178.324L183.937 178.596Z" fill="#D3E9F4"/>
<path d="M194.389 177.226C194.389 176.874 193.965 176.588 193.444 176.588C192.922 176.588 192.499 176.874 192.499 177.226C192.499 177.579 192.922 177.864 193.444 177.864C193.965 177.864 194.389 177.579 194.389 177.226Z" fill="#D3E9F4"/>
<path d="M207.462 178.784L207.513 179.346H197.419V178.324L207.462 178.784Z" fill="#D3E9F4"/>
<path d="M198.941 177.226C198.941 176.874 199.336 176.588 199.821 176.588C200.308 176.588 200.702 176.874 200.702 177.226C200.702 177.579 200.308 177.864 199.821 177.864C199.335 177.864 198.941 177.579 198.941 177.226Z" fill="#D3E9F4"/>
<path d="M194.967 83.1333C195.342 82.6562 196.022 81.7377 196.567 82.4183C197.112 83.099 197.862 82.5542 197.862 82.5542L197.827 83.8142C197.827 83.8142 197.146 84.3928 196.465 83.5079C196.156 83.1064 195.478 84.1885 195.478 84.1885L194.967 83.1333Z" fill="#AEBF34"/>
<path d="M189.736 82.628C189.205 82.3247 188.22 81.7271 187.952 82.565C187.685 83.4027 186.772 83.1785 186.772 83.1785L187.269 84.3363C187.269 84.3363 188.129 84.6187 188.451 83.539C188.597 83.0501 189.64 83.8008 189.64 83.8008L189.736 82.628Z" fill="#AEBF34"/>
<path d="M189.057 53.3683C190.337 53.7107 189.861 55.3065 188.403 54.8373C186.744 54.3041 187.177 52.8665 189.057 53.3683Z" fill="#F4A57D"/>
<path d="M197.783 51.9848C199.065 51.6491 199.448 53.2759 197.947 53.5897C196.241 53.948 195.899 52.4798 197.783 51.9848Z" fill="#F4A57D"/>
<path d="M114.647 176.504C114.788 176.717 114.905 176.933 114.992 177.125C115.024 177.192 115.034 177.28 115.02 177.366C115.008 177.449 114.972 177.523 114.921 177.569C114.755 177.718 114.548 177.669 114.431 177.449C114.099 176.83 113.33 175.765 112.238 176.472L112.043 175.689C113.2 174.94 114.108 175.702 114.647 176.504Z" fill="#8CAA43"/>
<path d="M115.219 179.044C115.472 179.044 115.702 179.016 115.891 178.975C115.96 178.961 116.02 178.913 116.056 178.843C116.094 178.772 116.103 178.687 116.084 178.607C116.019 178.34 115.804 178.168 115.573 178.197C114.915 178.28 113.603 178.226 113.026 176.662L112.397 176.991C113.007 178.645 114.269 179.044 115.219 179.044Z" fill="#8CAA43"/>
<path d="M79.0526 176.582C78.9594 176.827 78.8953 177.066 78.8571 177.274C78.8436 177.349 78.8604 177.436 78.9033 177.514C78.9465 177.591 79.0111 177.652 79.0837 177.682C79.3232 177.781 79.5424 177.676 79.6045 177.434C79.7841 176.747 80.3179 175.513 81.7973 175.895L81.7663 175.088C80.1993 174.683 79.4076 175.664 79.0526 176.582Z" fill="#ACC63E"/>
<path d="M78.045 179.145C77.7403 179.145 77.4625 179.116 77.2345 179.075C77.1559 179.061 77.0869 179.014 77.0448 178.946C77.0027 178.878 76.9914 178.796 77.0134 178.719L77.0165 178.708C77.0926 178.442 77.3487 178.27 77.6239 178.299C78.4077 178.381 79.9661 178.328 80.6525 176.764L81.401 177.092C80.6739 178.747 79.1733 179.145 78.045 179.145Z" fill="#ACC63E"/>
<path d="M80.7404 174.17C80.8427 175.657 79.5818 179.14 81.1138 179.14C82.6458 179.14 112.265 179.14 112.265 179.14C112.265 179.14 114.41 178.247 112.265 174.231C110.12 170.214 80.7404 174.17 80.7404 174.17Z" fill="#ACC63E"/>
<path d="M112.263 174.232C111.646 173.077 108.77 172.583 104.992 172.463C105.326 172.944 105.522 173.446 105.522 173.966C105.522 176.176 102.303 178.102 97.5269 179.141C105.03 179.141 112.263 179.141 112.263 179.141C112.263 179.141 114.408 178.248 112.263 174.232Z" fill="#7B9331"/>
<path d="M138.222 65.4908C138.583 65.4669 139.002 65.5387 139.469 65.6943C139.981 65.8643 141.34 65.3778 141.952 65.735C142.627 66.1291 142.564 67.3858 143.326 67.9669C143.717 68.2655 144.813 67.8808 145.22 68.2207C145.62 68.5551 145.218 69.4854 145.629 69.8547C151.604 75.232 158.494 84.1155 158.602 87.9737C158.602 87.9737 144.53 89.592 137.575 81.3427L138.222 65.4908Z" fill="#344C60"/>
<path d="M138.82 78.9453L137.575 81.343C144.53 89.5923 158.602 87.974 158.602 87.974C158.584 87.3093 158.359 86.4939 157.982 85.5804C154.789 85.5238 145.17 84.5167 138.82 78.9453Z" fill="#273F4F"/>
<path d="M104.255 95.7383C104.14 93.2064 104.416 90.5725 105.012 87.4733C105.12 86.9131 104.222 86.3529 104.349 85.7881C104.474 85.2304 105.585 84.8655 105.727 84.307C105.863 83.7765 105.117 83.1531 105.268 82.6218C105.377 82.234 106.381 81.9381 106.498 81.5518C108.926 73.5596 112.911 66.0747 116.548 65.9766L117.356 83.4451C117.356 83.4451 111.816 99.0547 104.255 95.7383Z" fill="#344C60"/>
<path d="M104.286 95.7491C111.831 99.0073 117.356 83.4439 117.356 83.4439L117.252 81.1914C115.054 85.2649 109.581 94.4445 104.286 95.7491Z" fill="#273F4F"/>
<path d="M95.5987 81.3945C95.9265 80.982 96.02 80.5104 95.806 80.3405C95.5929 80.1705 95.154 80.3669 94.8262 80.7793C94.4984 81.191 94.4049 81.6626 94.6189 81.8326C94.8328 82.0025 95.2706 81.8062 95.5987 81.3945Z" fill="#ED8C6B"/>
<path d="M95.8526 79.8457C96.1807 79.4332 96.2739 78.9616 96.06 78.7916C95.8471 78.6217 95.408 78.818 95.0802 79.2305C94.7521 79.6422 94.6589 80.1138 94.8728 80.284C95.0868 80.4537 95.5249 80.2574 95.8526 79.8457Z" fill="#ED8C6B"/>
<path d="M95.8362 78.041C96.1643 77.6285 96.2575 77.1569 96.0438 76.9869C95.8307 76.817 95.3918 77.0133 95.064 77.4258C94.7362 77.8378 94.6427 78.3091 94.8567 78.4791C95.0703 78.649 95.5084 78.4527 95.8362 78.041Z" fill="#ED8C6B"/>
<path d="M92.1926 79.7614C92.065 79.455 92.9588 76.1611 92.9843 75.3694C93.0099 74.578 93.5973 77.7952 93.5973 77.7952L92.1926 79.7614Z" fill="#F8BA95"/>
<path d="M132.964 53.6836L122.613 55.5445V62.014H133.206L132.964 53.6836Z" fill="#F8BA95"/>
<path opacity="0.4" d="M132.964 53.6836L122.613 55.5445V62.014H133.206L132.964 53.6836Z" fill="url(#paint22_linear_134_1139)"/>
<path d="M121.723 177.339C121.499 176.306 121.221 174.732 120.907 172.734C120.803 172.073 119.388 171.992 119.278 171.242C119.198 170.701 120.314 168.489 120.231 167.906C117.757 150.508 114.154 115.951 116.142 103.826L139.354 103.988L151.876 165.31C151.876 165.31 151.791 167.327 152.529 168.51C153.035 169.32 153.802 169.816 153.935 170.51C154.068 171.204 153.465 171.95 153.425 172.706C153.384 173.463 154.234 176.854 154.234 176.854L151.807 178.309C151.807 178.309 150.558 176.237 149.646 172.451C149.479 171.761 148.265 171.847 148.062 171.072C147.756 169.897 148.646 169.772 148.88 169.284C149.122 168.777 149.176 168.21 148.829 167.65C148.523 167.157 147.168 167.389 146.939 166.476C146.861 166.164 147.816 165.002 147.736 164.684C143.646 148.52 133.385 119.98 128.811 118.676C125.215 119.163 122.941 149.537 124.363 165.812C124.425 166.517 125.737 167.043 125.797 167.701C125.859 168.38 125.178 168.969 125.235 169.591C125.314 170.429 126.411 171.271 126.36 171.991C126.308 172.706 124.521 172.348 124.877 177.338H121.723V177.339Z" fill="#344C60"/>
<path opacity="0.4" d="M121.723 177.339C121.499 176.306 121.221 174.732 120.907 172.734C120.803 172.073 119.388 171.992 119.278 171.242C119.198 170.701 120.314 168.489 120.231 167.906C117.757 150.508 114.154 115.951 116.142 103.826L139.354 103.988L151.876 165.31C151.876 165.31 151.791 167.327 152.529 168.51C153.035 169.32 153.802 169.816 153.935 170.51C154.068 171.204 153.465 171.95 153.425 172.706C153.384 173.463 154.234 176.854 154.234 176.854L151.807 178.309C151.807 178.309 150.558 176.237 149.646 172.451C149.479 171.761 148.265 171.847 148.062 171.072C147.756 169.897 148.646 169.772 148.88 169.284C149.122 168.777 149.176 168.21 148.829 167.65C148.523 167.157 147.168 167.389 146.939 166.476C146.861 166.164 147.816 165.002 147.736 164.684C143.646 148.52 133.385 119.98 128.811 118.676C125.215 119.163 122.941 149.537 124.363 165.812C124.425 166.517 125.737 167.043 125.797 167.701C125.859 168.38 125.178 168.969 125.235 169.591C125.314 170.429 126.411 171.271 126.36 171.991C126.308 172.706 124.521 172.348 124.877 177.338H121.723V177.339Z" fill="url(#paint23_linear_134_1139)"/>
<path d="M115.891 106.419C115.78 105.6 115.949 105.522 115.84 104.734C115.795 104.407 114.966 104.085 114.921 103.764C114.89 103.54 115.486 102.249 115.456 102.028C112.088 77.6027 110.742 68.9704 115.579 65.9765C120.674 62.8231 139.193 65.3701 139.193 65.3701C152.295 72.4064 135.476 80.7025 139.843 106.42C138.145 106.541 115.891 106.419 115.891 106.419Z" fill="#344C60"/>
<path d="M128.47 115.271L124.785 86.4656L125.591 86.3086L128.878 115.271H128.47Z" fill="#537E99"/>
<path d="M142.088 81.2246C138.61 81.8813 133.849 94.571 139.429 103.53C138.46 95.1218 140.583 86.3052 142.088 81.2246Z" fill="#273F4F"/>
<path d="M125.121 86.0327C125.121 86.0327 130.459 67.1089 133.208 64.8443C128.748 63.9665 125.124 64.0097 120.389 65.0868C120.389 65.0868 121.48 78.0674 125.121 86.0327Z" fill="#537E99"/>
<path d="M125.202 83.7451C125.202 83.7451 129.739 67.0122 132.488 64.7476C128.028 63.8698 125.851 63.806 121.116 64.8832C121.116 64.8832 121.561 75.7802 125.202 83.7451Z" fill="#E8DEAF"/>
<path d="M124.606 75.12L123.271 72.1836L122.145 73.4227C122.205 73.7533 122.27 74.0874 122.338 74.4256L123.041 73.6518L124.431 76.7078L126.629 73.7992L127.75 75.2833C127.853 74.9707 127.957 74.6572 128.064 74.3426L126.629 72.4443L124.606 75.12Z" fill="#C17861"/>
<path opacity="0.4" d="M134.786 64.9015C130.589 64.4832 124.421 64.0477 119.596 64.7585C119.67 68.323 134.02 67.9655 134.786 64.9015Z" fill="#7A1E00"/>
<path d="M134.372 62.1499C134.372 61.3717 133.784 60.7232 133.01 60.6446C128.494 60.1856 124.702 60.3682 120.925 60.699C120.298 60.754 119.815 61.2792 119.815 61.909V64.5701C119.815 65.0096 120.084 65.4047 120.492 65.567C123.719 66.8504 130.384 66.728 133.492 65.6377C134.019 65.4531 134.372 64.9557 134.372 64.398V62.1499H134.372Z" fill="#E8DEAF"/>
<path d="M138.412 101.584L116.555 101.312L117.168 104.716L138.821 105.398L138.412 101.584Z" fill="#937345"/>
<path d="M129.537 101.852L129.511 102.121C130.397 102.54 131.656 103.192 131.617 103.508C131.581 103.913 130.15 104.463 129.265 104.766L129.242 105.014C129.242 105.014 132.229 104.121 132.28 103.533C132.332 103.125 130.212 102.155 129.537 101.852Z" fill="#684D29"/>
<path d="M148.984 89.6549C148.218 86.8103 155.614 84.5834 157.916 84.8337C160.217 85.0858 161.495 88.0445 159.842 89.3532C158.189 90.6603 149.21 90.4969 148.984 89.6549Z" fill="#769CB7"/>
<path d="M149.51 87.898C150.177 88.2395 150.984 88.443 151.859 88.443C154.134 88.443 155.978 87.0864 155.978 85.4131C155.978 85.2662 155.947 85.1257 155.919 84.9844C153.713 85.3883 150.75 86.4751 149.51 87.898Z" fill="#9EC4DB"/>
<path d="M101.101 89.1462C104.254 84.9011 109.494 91.4969 110.32 93.7153C111.146 95.9334 108.337 99.2163 105.953 98.8109C103.57 98.4023 100.38 90.118 101.101 89.1462Z" fill="#769CB7"/>
<path d="M101.13 89.1137C101.748 91.194 103.253 92.6647 105.015 92.6647C106.321 92.6647 107.487 91.8573 108.256 90.5923C106.232 88.3085 103.228 86.3392 101.13 89.1137Z" fill="#9EC4DB"/>
<path d="M140.203 106.089C141.739 100.792 147.319 89.2687 152.657 88.7837C157.995 88.2986 159.693 88.5411 159.693 88.5411C160.501 99.2159 145.379 99.7827 142.305 105.443L140.203 106.089Z" fill="#F8BA95"/>
<path d="M159.692 88.5408C159.692 88.5408 158.402 88.3574 154.544 88.6302C154.693 96.7986 142.971 100.463 140.89 105.878L142.305 105.443C145.379 99.7824 160.5 99.2159 159.692 88.5408Z" fill="#ED8C6B"/>
<path d="M157.402 95.2771C158.958 93.5685 159.911 91.4252 159.692 88.5392C159.692 88.5392 157.994 88.2966 152.657 88.7817C151.418 88.8942 150.168 89.6061 148.957 90.6904C152.318 91.3394 155.265 92.9878 157.402 95.2771Z" fill="#ED8C6B"/>
<path d="M92.1235 80.493C93.1671 85.9093 97.3149 97.1396 102.618 98.1224C107.922 99.1089 107.409 96.1422 107.409 96.1422C108.622 86.9227 95.8618 86.3579 93.3123 80.4355L92.1235 80.493Z" fill="#F8BA95"/>
<path d="M107.474 94.4679C106.838 94.9437 105.661 95.2555 103.466 94.9362C98.9203 94.2773 94.9216 86.1598 93.0585 80.4473L92.1235 80.4926C93.1671 85.909 97.3149 97.1392 102.618 98.1221C107.922 99.1085 107.409 96.1418 107.409 96.1418C107.487 95.5492 107.505 94.9929 107.474 94.4679Z" fill="#ED8C6B"/>
<path d="M105.627 90.0742C105.685 91.6508 105.248 93.0244 104.266 93.9698C102.831 95.3508 100.525 95.5241 98.0474 94.6911C99.419 96.508 100.962 97.8151 102.619 98.1222C107.923 99.1087 107.41 96.142 107.41 96.142C107.753 93.5309 106.975 91.615 105.627 90.0742Z" fill="#ED8C6B"/>
<path d="M129.648 79.8848C129.648 79.8848 131.267 83.7677 134.016 83.7677C136.765 83.7677 139.191 80.0478 139.191 80.0478L129.648 79.8848Z" fill="#769CB7"/>
<path d="M113.343 174.653C113.368 172.733 111.83 171.176 109.909 171.176H83.302C81.6941 171.176 80.3744 172.48 80.3535 174.087L80.3447 174.815H113.341L113.343 174.653Z" fill="#B57759"/>
<path d="M109.908 171.176H107.998C108.129 171.48 108.197 171.792 108.192 172.109C108.181 173.079 107.509 173.998 106.325 174.815H113.34L113.342 174.653C113.366 172.733 111.829 171.176 109.908 171.176Z" fill="#91523A"/>
<path d="M94.5524 71.1523H93.0972L96.9653 174.033H98.4208L94.5524 71.1523Z" fill="#B57759"/>
<path d="M95.4668 95.9011L94.5524 71.1523H93.0972L93.9461 94.1211C94.4551 94.5135 94.9641 95.1072 95.4668 95.9011Z" fill="#91523A"/>
<path d="M120.078 100.221L118.923 100.299L119.295 105.801L120.45 105.723L120.078 100.221Z" fill="#344C60"/>
<path d="M135.232 100.389L134.076 100.467L134.448 105.969L135.604 105.891L135.232 100.389Z" fill="#344C60"/>
<path d="M140.523 105.158C140.149 105.908 139.399 108.529 140.829 109.585C141.937 110.403 144.642 109.21 144.132 107.644C143.621 106.078 142.396 106.554 142.396 106.554V105.226L140.523 105.158Z" fill="#F8BA95"/>
<path d="M144.131 107.645C143.62 106.079 142.395 106.555 142.395 106.555L142.632 104.922L141.184 105.184C140.96 105.545 140.827 105.982 140.827 106.454C140.827 107.695 141.735 108.701 142.853 108.701C143.365 108.701 143.827 108.483 144.183 108.137C144.197 107.978 144.186 107.814 144.131 107.645Z" fill="#ED8C6B"/>
<path d="M95.461 70.2637L92.6011 70.4168L93.214 83.5925H95.2056L95.461 70.2637Z" fill="#CC6237"/>
<path d="M95.106 70.4672L92.603 70.416C93.6752 87.3197 95.0029 75.5749 95.106 70.4672Z" fill="#EA8D4E"/>
<path d="M92.1239 80.4919C91.8431 79.437 93.2162 76.4415 94.3907 76.799C95.5652 77.1565 94.697 80.2716 94.595 80.4759C94.493 80.68 92.5636 82.1419 92.1239 80.4919Z" fill="#F8BA95"/>
<path d="M94.4673 80.3738C94.978 80.7313 95.6162 81.4463 95.8973 80.8334C96.178 80.2204 94.5696 79.0715 94.5696 79.1482C94.5696 79.2249 94.4673 80.3738 94.4673 80.3738Z" fill="#F8BA95"/>
<path d="M94.6763 79.0929C95.2684 79.2876 96.0862 79.787 96.1781 79.1193C96.2691 78.4505 94.3964 77.8172 94.4187 77.8906C94.4409 77.9637 94.6763 79.0929 94.6763 79.0929Z" fill="#F8BA95"/>
<path d="M94.7766 77.7664C95.3926 77.6738 96.3485 77.7513 96.1293 77.1136C95.9098 76.4762 93.9524 76.7531 94.0049 76.8089C94.0583 76.8639 94.7766 77.7664 94.7766 77.7664Z" fill="#F8BA95"/>
<path d="M143.696 108.156C143.696 107.62 143.428 107.186 143.096 107.186C142.765 107.186 142.496 107.62 142.496 108.156C142.496 108.692 142.765 109.126 143.096 109.126C143.428 109.126 143.696 108.692 143.696 108.156Z" fill="#F8BA95"/>
<path d="M134.582 82.5449C134.582 82.1643 134.296 81.8555 133.944 81.8555C133.591 81.8555 133.306 82.1643 133.306 82.5449C133.306 82.9255 133.591 83.2343 133.944 83.2343C134.296 83.2343 134.582 82.9255 134.582 82.5449Z" fill="#9EC4DB"/>
<path d="M113.465 87.4347C113.772 91.2136 114.772 97.0763 115.382 101.502C116.244 98.545 117.035 86.181 113.465 87.4347Z" fill="#273F4F"/>
<path d="M129.32 101.263C129.171 101.105 128.963 101.016 128.744 101.016H124.728C124.564 101.016 124.409 101.086 124.303 101.21C124.195 101.333 124.148 101.497 124.172 101.658L124.606 104.638C124.663 105.029 124.989 105.323 125.383 105.341L128.664 105.488C129.04 105.507 129.358 105.216 129.379 104.841L129.538 101.851C129.548 101.634 129.47 101.42 129.32 101.263ZM128.838 104.501C128.822 104.795 128.571 105.023 128.276 105.009L125.699 104.894C125.389 104.879 125.133 104.648 125.089 104.341L124.746 102C124.728 101.872 124.766 101.745 124.85 101.648C124.934 101.551 125.055 101.495 125.184 101.495H128.339C128.51 101.495 128.674 101.565 128.791 101.69C128.909 101.813 128.971 101.98 128.963 102.152L128.838 104.501Z" fill="#E0AB65"/>
<path d="M128.419 103.076C128.419 102.949 128.317 102.846 128.19 102.846H127.142C127.019 102.846 126.92 102.945 126.92 103.067V103.34C126.92 103.48 127.035 103.595 127.175 103.595H128.189C128.316 103.595 128.419 103.492 128.419 103.365V103.076H128.419Z" fill="#E0AB65"/>
<path d="M137.29 103.457C137.29 103.249 137.107 103.082 136.881 103.082C136.656 103.082 136.473 103.249 136.473 103.457C136.473 103.664 136.656 103.831 136.881 103.831C137.107 103.831 137.29 103.664 137.29 103.457Z" fill="#684D29"/>
<path d="M122.716 103.117C122.716 102.91 122.533 102.742 122.308 102.742C122.082 102.742 121.899 102.91 121.899 103.117C121.899 103.324 122.082 103.491 122.308 103.491C122.533 103.492 122.716 103.324 122.716 103.117Z" fill="#684D29"/>
<path d="M124.672 84.9187L125.336 84.8164L125.949 87.0637L124.212 86.8593L124.672 84.9187Z" fill="#9EC4DB"/>
<path opacity="0.2" d="M125.797 167.701C125.737 167.043 124.425 166.517 124.363 165.812C123.861 160.064 123.821 152.559 124.136 145.232C121.72 144.706 119.427 143.913 117.299 142.893C118.195 152.258 119.294 161.314 120.231 167.906C120.314 168.489 119.198 170.701 119.278 171.242C119.389 171.991 120.804 172.073 120.907 172.734C121.221 174.732 121.499 176.305 121.723 177.339H124.877C124.52 172.349 126.308 172.706 126.36 171.991C126.412 171.272 125.314 170.43 125.235 169.591C125.178 168.969 125.858 168.381 125.797 167.701Z" fill="#2E404C"/>
<path opacity="0.2" d="M153.937 170.509C153.803 169.815 153.036 169.319 152.53 168.509C151.792 167.326 151.877 165.309 151.877 165.309L147.071 141.771C145.335 142.784 143.461 143.63 141.484 144.296C143.997 151.465 146.267 158.873 147.736 164.683C147.817 165.001 146.862 166.163 146.94 166.475C147.169 167.389 148.524 167.157 148.829 167.65C149.177 168.21 149.123 168.777 148.88 169.284C148.647 169.771 147.757 169.897 148.063 171.071C148.265 171.846 149.479 171.761 149.646 172.45C150.559 176.236 151.808 178.309 151.808 178.309L154.234 176.853C154.234 176.853 153.385 173.462 153.425 172.705C153.467 171.949 154.07 171.203 153.937 170.509Z" fill="#2E404C"/>
<path d="M125.842 174.202C125.866 173.985 125.812 173.764 125.694 173.598C125.577 173.43 125.407 173.336 125.228 173.336H121.065C120.879 173.336 120.702 173.435 120.579 173.606C120.455 173.778 120.397 174.006 120.42 174.233L120.791 178.066H125.422L125.842 174.202Z" fill="#789FBA"/>
<path d="M154.673 173.581C154.639 173.341 154.501 173.129 154.294 173.001C154.088 172.874 153.836 172.846 153.606 172.924L150.006 174.15C149.759 174.235 149.561 174.423 149.465 174.665C149.368 174.908 149.383 175.181 149.505 175.411L151.323 178.855L155.204 177.4L154.673 173.581Z" fill="#789FBA"/>
<path d="M114.687 179.252C118.551 179.252 126.089 179.252 126.089 179.252C126.089 179.252 126.292 176.141 122.612 176.28C118.437 176.436 114.687 179.252 114.687 179.252Z" fill="#AED1E5"/>
<path d="M161.877 179.252C158.177 179.252 150.959 179.252 150.959 179.252C150.959 179.252 150.753 176.21 154.275 176.348C158.273 176.505 161.877 179.252 161.877 179.252Z" fill="#AED1E5"/>
<path d="M126.29 178.365L114.919 178.663L114.374 179.251H126.29V178.365Z" fill="#D4F0FC"/>
<path d="M150.599 178.365L161.58 178.663L162.107 179.251H150.599V178.365Z" fill="#D4F0FC"/>
<path d="M118.972 176.961L120.64 175.838L123.772 176.314L123.364 177.166L118.972 176.961Z" fill="#E1F7FF"/>
<path d="M151.996 176.86L152.507 177.677L156.762 176.758L154.889 175.465L151.996 176.86Z" fill="#E1F7FF"/>
<path opacity="0.4" d="M142.265 66.0536C142.179 65.926 142.082 65.8119 141.953 65.736C141.446 65.4399 140.434 65.7184 139.808 65.7281C139.604 65.6093 139.413 65.4888 139.192 65.3706C139.192 65.3706 137.173 65.0936 134.292 64.836C134.34 64.6971 134.371 64.5519 134.371 64.3995V62.1534C134.371 61.4321 133.862 60.8238 133.17 60.6772L132.973 53.9434C132.703 53.9027 132.429 53.8653 132.153 53.8301L122.615 55.545V60.5656C122.05 60.6071 121.487 60.6511 120.925 60.7003C120.298 60.7553 119.815 61.2803 119.815 61.9108V64.5711C119.815 64.6245 119.831 64.674 119.838 64.726C119.76 64.7372 119.681 64.7469 119.604 64.7579C119.601 64.7579 119.598 64.7587 119.596 64.7587C117.931 65.0045 116.524 65.3923 115.579 65.9772C115.278 66.1631 115.001 66.3715 114.748 66.6036C114.488 66.7673 114.227 66.9724 113.967 67.1957C117.3 68.6694 121.926 69.5832 127.042 69.5832C133.375 69.5827 138.959 68.1832 142.265 66.0536Z" fill="#6F1B00"/>
<path d="M133.824 51.5324C133.732 52.7588 135.336 54.4663 136.778 53.9581C136.778 53.9581 136.082 51.4149 136.204 49.7578L133.824 51.5324Z" fill="#6B361B"/>
<path d="M132.567 52.3822C132.188 53.5526 133.34 55.59 134.859 55.4344C134.859 55.4344 134.786 52.798 135.296 51.2148L132.567 52.3822Z" fill="#6B361B"/>
<path d="M131.852 54.015C131.473 55.1857 132.624 57.2226 134.143 57.0672C134.143 57.0672 134.07 54.4308 134.581 52.8477L131.852 54.015Z" fill="#6B361B"/>
<path d="M133.7 49.0993C133.856 50.3195 135.764 51.6694 137.072 50.8805C137.072 50.8805 135.659 48.0788 136.284 46.9434L133.7 49.0993Z" fill="#6B361B"/>
<path d="M118.392 46.3281C117.201 46.6688 115.227 45.3068 115.465 43.6725C115.465 43.6725 118.596 43.9447 119.413 42.8555L118.392 46.3281Z" fill="#6B361B"/>
<path d="M119.216 60.4785C120.207 62.2165 127.789 60.8822 128.354 60.5583C128.92 60.236 129.745 57.5215 130.392 56.066C131.04 54.6104 135.309 44.4639 133.368 42.9286C131.427 41.3919 122.451 38.3994 121.076 39.531C120.305 40.166 118.273 43.6747 117.498 48.4057C117.472 48.8908 118.591 49.6368 118.468 50.4995C118.263 51.9295 117.242 51.8783 117.191 52.67C117.202 55.3675 117.742 57.8947 119.216 60.4785Z" fill="#F8BA95"/>
<path d="M117.506 48.3711C117.064 47.7925 117.357 47.0539 117.472 46.7371C117.608 46.3628 118.868 45.2051 120.843 44.8984C120.843 44.8984 120.298 46.7712 120.434 47.452C120.434 47.452 118.221 47.8269 117.506 48.3711Z" fill="#6B361B"/>
<path d="M122.58 47.4862C122.444 46.8056 122.75 45.1372 123.124 44.7285C123.124 44.7285 126.802 45.8527 127.585 47.2139L126.836 48.3711L122.58 47.4862Z" fill="#6B361B"/>
<path opacity="0.4" d="M123.944 46.6982C127.796 46.5077 131.269 45.8477 133.858 44.9267C133.914 43.9805 133.785 43.2567 133.37 42.9286C131.429 41.3919 122.454 38.3994 121.078 39.531C120.629 39.9003 119.755 41.2464 118.949 43.2349C117.781 43.8716 115.466 43.673 115.466 43.673C115.268 45.0392 116.615 46.2112 117.758 46.3614C117.694 46.426 117.646 46.4843 117.602 46.5401C119.534 46.7436 121.679 46.8099 123.944 46.6982Z" fill="#6F1B00"/>
<path d="M116.962 61.6836C118.085 62.9604 124.039 64.8801 127.84 62.8581C127.84 62.8581 132.156 55.8682 132.722 50.9354L129.973 49.7207L128.98 52.8661C128.98 52.8661 118.494 53.8531 117.195 52.6731C117.194 52.6733 116.145 57.0876 116.962 61.6836Z" fill="#6B361B"/>
<path d="M129.809 50.6927C129.809 50.6927 131.022 43.8192 129.404 42.7676L135.703 45.4438C135.703 45.4438 137.847 48.8653 133.125 56.3532L130.861 54.8979L129.809 50.6927Z" fill="#6B361B"/>
<path d="M123.182 41.9579L123.706 37.9187C124.603 36.942 130.644 35.7595 131.774 36.4552C133.553 37.5068 137.759 40.7927 138.055 42.2769C138.464 44.3196 136.268 47.6899 136.268 47.6899C134.023 45.6299 128.447 42.732 123.182 41.9579Z" fill="#936E61"/>
<path d="M123.706 37.9186L123.182 41.9577C126.796 42.489 130.554 44.0205 133.283 45.5948C133.822 44.5144 134.124 43.3256 134.124 42.0743C134.124 39.9637 133.269 38.028 131.848 36.5007C131.824 36.4861 131.796 36.4688 131.774 36.4553C130.644 35.7593 124.603 36.9421 123.706 37.9186Z" fill="#D6B2A7"/>
<path d="M131.873 49.716C133.065 48.9062 134.761 50.2484 134.76 50.645C134.757 53.255 133.001 55.0949 131.209 54.1743C130.917 52.7275 131.362 50.2737 131.873 49.716Z" fill="#F8BA95"/>
<path d="M118.73 43.5744C116.546 41.9579 113.069 39.9359 114.444 37.9953C115.819 36.053 124.957 36.053 127.626 37.3474C130.294 38.6418 132.537 45.1881 132.537 45.1881C124.773 41.9514 120.481 41.5061 118.73 43.5744Z" fill="#4C3327"/>
<path d="M132.368 50.6344C133.087 50.2299 133.946 50.7628 134.316 51.1794C134.32 51.1068 134.326 51.0342 134.326 50.9592C134.327 50.6591 133.039 49.6386 132.13 50.2505C131.773 50.6358 131.461 52.2197 131.578 53.3274C131.63 52.2574 132.02 50.9567 132.368 50.6344Z" fill="#ED8C6B"/>
<path d="M132.276 51.3971C132.876 51.0899 133.56 51.5525 133.849 51.9036C133.854 51.8445 133.862 51.7857 133.865 51.7241C133.874 51.479 132.855 50.6062 132.094 51.0762C131.791 51.3795 131.486 52.6623 131.547 53.5707C131.623 52.6975 131.982 51.6493 132.276 51.3971Z" fill="#ED8C6B"/>
<path d="M120.608 53.1031C119.145 53.2394 119.621 52.4904 120.063 51.9797C121.919 49.8356 121.452 47.4186 121.295 46.8145L120.574 46.9751C120.574 46.9751 121.42 49.9161 119.28 52.3883C118.838 52.899 118.361 53.6484 119.825 53.5117C121.288 53.3753 122.888 53.2397 122.888 53.2397L122.922 52.8415C122.293 52.9218 121.419 53.0272 120.608 53.1031Z" fill="#D86A4C"/>
<path d="M119.889 55.2832L120.434 58.2796C120.434 58.2796 125.438 57.6666 126.936 55.4875L119.889 55.2832Z" fill="#421D11"/>
<path d="M120.23 55.4199L120.519 56.8843L125.421 56.4756L125.796 55.539L120.23 55.4199Z" fill="#FFEBE6"/>
<path d="M124.493 49.3506C125.668 49.4529 125.302 51.0957 124.485 51.0957C123.668 51.0957 123.203 49.2381 124.493 49.3506Z" fill="#5B3C34"/>
<path d="M119.515 49.3252C120.69 49.4272 120.323 51.0703 119.506 51.0703C118.689 51.0703 118.225 49.2127 119.515 49.3252Z" fill="#5B3C34"/>
<path d="M124.691 49.4945C122.853 49.2569 123.5 48.8139 124.776 48.967C125.355 49.0366 126.334 49.7068 124.691 49.4945Z" fill="#ED8C6B"/>
<path d="M119.261 49.5337C117.498 50.0549 117.912 49.3797 119.131 49.0063C119.684 48.8377 120.836 49.0676 119.261 49.5337Z" fill="#ED8C6B"/>
<path d="M231.132 17.4238H229.75V102.8H231.132V17.4238Z" fill="#4C4335"/>
<path d="M229.585 54.4767C222.913 53.2288 205.18 36.5674 204.253 30.7889C203.327 25.0131 224.026 -0.119276 229.278 0.45904C234.528 1.03681 253.373 22.7015 253.682 28.1899C253.993 33.6777 237.306 55.9207 229.585 54.4767Z" fill="#9EAF3A"/>
<path d="M207.671 36.7612C212.288 31.6306 218.353 26.7981 225.512 22.8503C232.316 19.0977 239.266 16.6153 245.779 15.3751C239.868 8.15535 232.309 0.792885 229.278 0.45904C224.026 -0.119276 203.327 25.0131 204.253 30.7889C204.486 32.2354 205.77 34.3633 207.671 36.7612Z" fill="#BCC943"/>
<path d="M240.718 38.2799C231.571 42.242 222.38 44.0861 214.388 43.9717C219.861 49.1595 226.171 53.8372 229.586 54.4758C236.148 55.7028 249.18 39.827 252.755 31.6621C249.143 34.1324 245.108 36.3786 240.718 38.2799Z" fill="#7B8426"/>
<path d="M229.793 51.1564C224.132 50.0993 209.095 35.9695 208.308 31.0702C207.523 26.1708 225.077 4.85812 229.53 5.34816C233.984 5.83958 249.964 24.2104 250.228 28.8661C250.49 33.5196 236.34 52.3829 229.793 51.1564Z" fill="#F9E4C7"/>
<path d="M229.53 5.34816C225.077 4.85812 207.524 26.1708 208.308 31.0702C208.527 32.4325 209.85 34.5098 211.765 36.8209C223.77 43.3825 240.763 40.0771 250.191 29.4543C250.221 29.2414 250.237 29.0404 250.228 28.8658C249.964 24.2104 233.984 5.8393 229.53 5.34816Z" fill="#FFF2E1"/>
<path d="M231.893 69.295C231.893 69.0447 231.555 68.8418 231.137 68.8418C230.72 68.8418 230.381 69.0447 230.381 69.295C230.381 69.5452 230.72 69.7482 231.137 69.7482C231.555 69.7482 231.893 69.5452 231.893 69.295Z" fill="#F8BA95"/>
<path d="M231.893 70.3262C231.893 70.076 231.555 69.873 231.137 69.873C230.72 69.873 230.381 70.076 230.381 70.3262C230.381 70.5765 230.72 70.7794 231.137 70.7794C231.555 70.7794 231.893 70.5765 231.893 70.3262Z" fill="#F8BA95"/>
<path d="M231.621 71.3575C231.621 71.1072 231.283 70.9043 230.865 70.9043C230.447 70.9043 230.108 71.1072 230.108 71.3575C230.108 71.6077 230.447 71.8107 230.865 71.8107C231.282 71.8107 231.621 71.6077 231.621 71.3575Z" fill="#F8BA95"/>
<path d="M150.427 180.308C198.116 180.308 236.776 179.877 236.776 179.345C236.776 178.814 198.116 178.383 150.427 178.383C102.738 178.383 64.0786 178.814 64.0786 179.345C64.0786 179.877 102.738 180.308 150.427 180.308Z" fill="#F8BA95"/>
<defs>
<linearGradient id="paint0_linear_134_1139" x1="124.999" y1="178.408" x2="124.847" y2="169.657" gradientUnits="userSpaceOnUse">
<stop stop-color="#BF4A0A"/>
<stop offset="0.99" stop-color="#902F00"/>
</linearGradient>
<linearGradient id="paint1_linear_134_1139" x1="118.253" y1="154.197" x2="83.0737" y2="154.901" gradientUnits="userSpaceOnUse">
<stop/>
<stop offset="1" stop-color="white"/>
</linearGradient>
<linearGradient id="paint2_linear_134_1139" x1="120.068" y1="163.686" x2="84.0246" y2="164.407" gradientUnits="userSpaceOnUse">
<stop/>
<stop offset="1" stop-color="white"/>
</linearGradient>
<linearGradient id="paint3_linear_134_1139" x1="122.655" y1="155.275" x2="123.898" y2="150.18" gradientUnits="userSpaceOnUse">
<stop/>
<stop offset="1" stop-color="#505400"/>
</linearGradient>
<linearGradient id="paint4_linear_134_1139" x1="118.505" y1="140.366" x2="134.08" y2="144.165" gradientUnits="userSpaceOnUse">
<stop stop-color="#F4EDCA"/>
<stop offset="1" stop-color="#F4B8B0"/>
</linearGradient>
<linearGradient id="paint5_linear_134_1139" x1="119.67" y1="148.215" x2="123.146" y2="133.967" gradientUnits="userSpaceOnUse">
<stop/>
<stop offset="1" stop-color="#505400"/>
</linearGradient>
<linearGradient id="paint6_linear_134_1139" x1="122.609" y1="147.671" x2="125.797" y2="134.603" gradientUnits="userSpaceOnUse">
<stop/>
<stop offset="1" stop-color="#505400"/>
</linearGradient>
<linearGradient id="paint7_linear_134_1139" x1="108.897" y1="139.411" x2="119.989" y2="137.019" gradientUnits="userSpaceOnUse">
<stop stop-color="#958B9D"/>
<stop offset="1" stop-color="#C2929D"/>
</linearGradient>
<linearGradient id="paint8_linear_134_1139" x1="104.792" y1="147.172" x2="106.948" y2="146.707" gradientUnits="userSpaceOnUse">
<stop stop-color="#958B9D"/>
<stop offset="1" stop-color="#654075"/>
</linearGradient>
<linearGradient id="paint9_linear_134_1139" x1="104.474" y1="147.241" x2="106.633" y2="146.775" gradientUnits="userSpaceOnUse">
<stop stop-color="#958B9D"/>
<stop offset="1" stop-color="#C2929D"/>
</linearGradient>
<linearGradient id="paint10_linear_134_1139" x1="113.636" y1="143.705" x2="117.55" y2="132.852" gradientUnits="userSpaceOnUse">
<stop offset="0.01" stop-color="#FFFFE1"/>
<stop offset="1" stop-color="#E2D1C7"/>
</linearGradient>
<linearGradient id="paint11_linear_134_1139" x1="109.141" y1="135.546" x2="116.312" y2="133.999" gradientUnits="userSpaceOnUse">
<stop/>
<stop offset="1" stop-color="#8B7500"/>
</linearGradient>
<linearGradient id="paint12_linear_134_1139" x1="84.6977" y1="151.768" x2="97.455" y2="152.067" gradientUnits="userSpaceOnUse">
<stop offset="0.01" stop-color="#7F8900"/>
<stop offset="1" stop-color="#435900"/>
</linearGradient>
<linearGradient id="paint13_linear_134_1139" x1="87.0337" y1="152.649" x2="87.0722" y2="151" gradientUnits="userSpaceOnUse">
<stop/>
<stop offset="1" stop-color="#FC6B6B"/>
</linearGradient>
<linearGradient id="paint14_linear_134_1139" x1="89.4068" y1="152.595" x2="89.4419" y2="151.097" gradientUnits="userSpaceOnUse">
<stop/>
<stop offset="1" stop-color="#FC6B6B"/>
</linearGradient>
<linearGradient id="paint15_linear_134_1139" x1="96.2593" y1="175.411" x2="117.602" y2="175.411" gradientUnits="userSpaceOnUse">
<stop stop-color="#8B2C52"/>
<stop offset="1" stop-color="#660045"/>
</linearGradient>
<linearGradient id="paint16_linear_134_1139" x1="97.0093" y1="178.206" x2="119.807" y2="178.206" gradientUnits="userSpaceOnUse">
<stop stop-color="#980020"/>
<stop offset="1" stop-color="#F9003F"/>
</linearGradient>
<linearGradient id="paint17_linear_134_1139" x1="112.903" y1="179.982" x2="112.903" y2="176.486" gradientUnits="userSpaceOnUse">
<stop stop-color="#FFE25D"/>
<stop offset="0.99" stop-color="#FFA925"/>
</linearGradient>
<linearGradient id="paint18_linear_134_1139" x1="117.899" y1="179.982" x2="117.899" y2="176.705" gradientUnits="userSpaceOnUse">
<stop stop-color="#FFE25D"/>
<stop offset="0.99" stop-color="#FFA925"/>
</linearGradient>
<linearGradient id="paint19_linear_134_1139" x1="76.9098" y1="174.376" x2="76.9098" y2="145.912" gradientUnits="userSpaceOnUse">
<stop/>
<stop offset="1" stop-color="#505400"/>
</linearGradient>
<linearGradient id="paint20_linear_134_1139" x1="187.822" y1="67.9458" x2="189.598" y2="57.6307" gradientUnits="userSpaceOnUse">
<stop stop-color="#B84C00"/>
<stop offset="1" stop-color="#B83100"/>
</linearGradient>
<linearGradient id="paint21_linear_134_1139" x1="188.758" y1="161.217" x2="201.696" y2="86.0448" gradientUnits="userSpaceOnUse">
<stop stop-color="#004167"/>
<stop offset="1" stop-color="#003643"/>
</linearGradient>
<linearGradient id="paint22_linear_134_1139" x1="127.91" y1="67.8121" x2="127.91" y2="50.536" gradientUnits="userSpaceOnUse">
<stop stop-color="#9D2D00"/>
<stop offset="1" stop-color="#A82D00"/>
</linearGradient>
<linearGradient id="paint23_linear_134_1139" x1="117.076" y1="113.83" x2="147.513" y2="174.498" gradientUnits="userSpaceOnUse">
<stop stop-color="#004167"/>
<stop offset="1" stop-color="#003643"/>
</linearGradient>
</defs>
</svg>
