<svg width="34" height="33" viewBox="0 0 34 33" fill="none" xmlns="http://www.w3.org/2000/svg">
<path d="M7.99103 25.7914C7.70766 25.7347 7.48097 25.678 7.19759 25.5647C6.91423 25.4513 6.68753 25.3947 6.46083 25.2813C5.95077 25.0546 5.49738 24.7713 5.04398 24.4312C4.1372 23.8078 3.40044 22.9577 2.8337 21.9376C2.26696 20.9741 1.92692 19.8406 1.87024 18.7638C1.81357 18.1971 1.87024 17.687 1.92692 17.1203C1.98359 16.8369 2.04026 16.6102 2.09694 16.3268C2.15361 16.0435 2.26696 15.8168 2.32363 15.5334L2.38031 16.3268C2.38031 16.6102 2.43698 16.8369 2.49366 17.1203C2.55033 17.6303 2.66368 18.1404 2.77703 18.5938C3.00372 19.5572 3.34376 20.464 3.85383 21.3141C4.3639 22.1643 4.93064 22.9577 5.6674 23.6945C6.00744 24.0345 6.40416 24.3745 6.80088 24.7146C6.9709 24.8846 7.1976 25.0546 7.42429 25.2246L7.99103 25.7914ZM7.82101 27.8317C7.65099 27.945 7.42429 28.0017 7.19759 28.0583C6.9709 28.115 6.80088 28.1717 6.57418 28.1717C6.17746 28.2284 5.72407 28.285 5.27068 28.2284C4.42057 28.1717 3.51379 27.945 2.77703 27.5483C1.98359 27.1516 1.3035 26.5282 0.85011 25.7914C0.623414 25.4513 0.396718 25.0546 0.226696 24.6579C0.170022 24.4879 0.113348 24.2612 0.0566739 24.0345C0.0566739 23.8645 0 23.6945 0 23.4678C0.170022 23.6378 0.28337 23.8078 0.396718 23.9211C0.56674 24.0912 0.680088 24.2612 0.793436 24.3745C1.07681 24.6579 1.3035 24.9413 1.58687 25.168C2.15361 25.678 2.72035 26.1314 3.40044 26.4715C4.02385 26.8115 4.76061 27.0949 5.4407 27.3216C5.78075 27.4349 6.17746 27.4916 6.57418 27.605C6.7442 27.6616 6.9709 27.6616 7.14092 27.7183C7.42429 27.775 7.59431 27.775 7.82101 27.8317ZM20.6293 0.288098C20.9127 0.344772 21.1394 0.45812 21.4228 0.571468C21.7061 0.684816 21.9328 0.798164 22.1595 0.911511C22.6696 1.19488 23.123 1.47825 23.5764 1.8183C24.4832 2.49838 25.2199 3.40517 25.73 4.4253C26.2401 5.44543 26.5234 6.57891 26.5234 7.65571C26.5234 8.22245 26.4667 8.73252 26.3534 9.29926C26.2967 9.58263 26.2401 9.80932 26.1267 10.0927C26.0134 10.3761 25.9567 10.6028 25.8433 10.8295L25.7867 10.036C25.7867 9.75265 25.7867 9.52596 25.73 9.24259L25.56 7.71239C25.3899 6.74893 25.0499 5.78547 24.5965 4.87869C24.1431 3.97191 23.5764 3.17847 22.8963 2.44171C22.5562 2.04499 22.1595 1.70495 21.8195 1.30823C21.6495 1.13821 21.4228 0.968186 21.1961 0.798164L20.6293 0.288098ZM25.56 0.0614019C25.7867 0.118076 25.9567 0.17475 26.1267 0.288098C26.2967 0.344772 26.5234 0.45812 26.6934 0.571468C27.0335 0.798164 27.3735 1.02486 27.7136 1.30823C28.337 1.87497 28.8471 2.55506 29.1304 3.34849C29.4705 4.14193 29.5838 4.99204 29.4705 5.84215C29.4138 6.23887 29.3004 6.63558 29.1871 7.0323C29.1304 7.20232 29.0171 7.42902 28.9604 7.59904C28.8471 7.76906 28.7904 7.93908 28.6204 8.10911V7.54237V6.97563C28.6204 6.57891 28.5637 6.23886 28.5637 5.89882C28.4503 5.16206 28.337 4.48197 28.0536 3.85856C27.7702 3.17847 27.4302 2.61173 27.0335 1.98832C26.8068 1.70495 26.5801 1.3649 26.3534 1.08153C26.2401 0.911512 26.1267 0.798164 25.9567 0.628142C25.8433 0.344772 25.6733 0.17475 25.56 0.0614019Z" fill="#42ADE2"/>
<path d="M4.53392 8.50601C3.40044 9.01607 3.00372 10.3762 3.51379 11.5097L10.6547 26.415L14.6219 24.5447L7.48097 9.58281C6.9709 8.44933 5.6674 7.93927 4.53392 8.50601ZM23.293 20.3509L27.4869 18.3673L19.3258 1.36509C18.7591 0.231607 17.3989 -0.278459 16.2088 0.288281C15.0753 0.855021 14.5652 2.2152 15.132 3.40535L23.293 20.3509Z" fill="#FFDD67"/>
<path d="M16.2654 0.231526C16.152 0.2882 16.0387 0.344874 15.9253 0.458222C17.0022 0.174852 18.1356 0.684918 18.6457 1.70505L26.8067 18.7072L27.5435 18.3672L19.3825 1.36501C18.8157 0.174852 17.4555 -0.335214 16.2654 0.231526Z" fill="#EBA352"/>
<path d="M14.6221 24.488L18.986 22.391L10.6549 5.0488C10.0881 3.85864 8.61462 3.29191 7.42447 3.85864C6.23431 4.42538 5.72425 5.89891 6.29099 7.08906L14.6221 24.488Z" fill="#FFDD67"/>
<path d="M7.4245 3.91542C7.31115 3.9721 7.1978 4.02877 7.08445 4.14212C8.16126 3.85875 9.40809 4.36881 9.91815 5.44562L15.0755 16.2704L16.3223 17.0071L10.6549 5.10558C10.0882 3.85875 8.67133 3.34868 7.4245 3.91542Z" fill="#EBA352"/>
<path d="M18.3057 21.0309L22.6696 18.934L14.3385 1.59173C13.7718 0.401576 12.2982 -0.165164 11.1081 0.458249C9.91793 1.02499 9.40787 2.49851 9.97461 3.68867L18.3057 21.0309Z" fill="#FFDD67"/>
<path d="M11.1081 0.401572C10.9948 0.458246 10.8814 0.571594 10.7681 0.628268C11.8449 0.344898 13.0917 0.854964 13.6018 1.93177L19.4392 14.1733L20.686 14.9101L14.3386 1.59173C13.7718 0.344898 12.2983 -0.165168 11.1081 0.401572ZM4.53396 8.50595C4.42061 8.56263 4.30727 8.6193 4.19392 8.73265C5.21405 8.44928 6.29086 8.95934 6.74425 9.97948L10.9948 18.8773L12.2416 19.6141L7.48101 9.63943C6.97094 8.44928 5.66744 7.93921 4.53396 8.50595Z" fill="#EBA352"/>
<path d="M33.3245 6.80559C31.7943 5.61544 29.3006 6.91894 28.0538 10.9995C27.2037 13.8332 27.0904 14.6833 25.2768 15.5334L24.2567 13.4365C24.2567 13.4365 8.16125 21.2008 8.78467 22.4476C8.78467 22.4476 10.7116 28.4551 13.9987 31.2321C18.8726 35.426 30.2641 30.9487 30.7742 20.124C31.0575 13.8332 34.968 8.1091 33.3245 6.80559Z" fill="#FFDD67"/>
<path d="M33.3242 6.80575C33.0408 6.57906 32.7008 6.46571 32.3607 6.40903C32.4174 6.46571 32.5308 6.46571 32.5874 6.52238C34.2876 7.82588 32.5308 10.8296 31.5673 13.55C30.7739 15.7036 30.0938 17.9139 30.2071 20.0675C30.6605 29.4753 21.196 33.9526 15.5286 32.2524C21.0826 34.576 31.3973 30.1554 30.9439 20.3508C30.8305 18.1972 31.4539 16.1003 32.3041 13.8333C33.2108 11.113 34.9677 8.10925 33.3242 6.80575Z" fill="#EBA352"/>
<path d="M25.7865 15.3069C22.2727 15.7036 17.1154 20.7476 20.7425 26.245C18.0788 20.691 22.4427 16.9505 25.2198 15.647C25.5031 15.4203 25.7865 15.3069 25.7865 15.3069Z" fill="#EBA352"/>
</svg>
